<?xml version="1.0" encoding="iso-8859-1"?>
<!-- Generator: Adobe Illustrator 18.0.0, SVG Export Plug-In . SVG Version: 6.00 Build 0)  -->
<!DOCTYPE svg PUBLIC "-//W3C//DTD SVG 1.1//EN" "http://www.w3.org/Graphics/SVG/1.1/DTD/svg11.dtd">
<svg version="1.1" id="Capa_1" xmlns="http://www.w3.org/2000/svg" xmlns:xlink="http://www.w3.org/1999/xlink" x="0px" y="0px"
	 viewBox="0 0 297.497 297.497" style="enable-background:new 0 0 297.497 297.497;" xml:space="preserve">
<g id="XMLID_29_">
	<g>
		<polygon style="fill:#7F8C8D;" points="180.137,168.588 114.557,168.588 80.267,96.708 83.917,96.708 		"/>
		<path style="fill:#99ABD5;" d="M275.747,190.408c1.15,1.15,1.79,2.67,1.79,4.3c0,3.35-2.73,6.08-6.09,6.08H66.587
			c-27.82,0-46.51-7.36-46.51-18.32c0-0.17-0.01-0.34-0.02-0.51c-1.25-24.27,10.47-48.97,16.88-60.53l8.81,35.24
			c1.09,4.39,5.04,7.47,9.56,7.47h35.28l8.85,18.55c1.64,3.43,5.1,5.61,8.9,5.61h101.46c4.25,0,8.02-2.71,9.36-6.75
			c1.34-4.03-0.05-8.46-3.46-11l-8.57-6.41h39.84c1.62,0,3.15,0.64,4.3,1.78L275.747,190.408z"/>
		<path d="M289.697,176.458c4.87,4.88,7.55,11.36,7.55,18.25c0,14.23-11.57,25.8-25.8,25.8H66.587c-60.83,0-66.13-28.53-66.23-37.77
			c-1.94-39.64,23.15-77.46,24.22-79.05c1.83-2.73,4.9-4.36,8.18-4.36h11.28c4.52,0,8.47,3.08,9.56,7.47l9.41,37.62h18.18
			l-25.44-53.33c-1.46-3.05-1.24-6.64,0.56-9.5c1.81-2.87,4.96-4.6,8.34-4.6h22.55c2.12,0,4.19,0.69,5.9,1.96l87.64,65.47h66.23
			c6.89,0,13.37,2.69,18.24,7.56L289.697,176.458z M277.537,194.708c0-1.63-0.64-3.15-1.79-4.3l-24.48-24.49
			c-1.15-1.14-2.68-1.78-4.3-1.78h-39.84l8.57,6.41c3.41,2.54,4.8,6.97,3.46,11c-1.34,4.04-5.11,6.75-9.36,6.75h-101.46
			c-3.8,0-7.26-2.18-8.9-5.61l-8.85-18.55h-35.28c-4.52,0-8.47-3.08-9.56-7.47l-8.81-35.24c-6.41,11.56-18.13,36.26-16.88,60.53
			c0.01,0.17,0.02,0.34,0.02,0.51c0,10.96,18.69,18.32,46.51,18.32h204.86C274.807,200.788,277.537,198.058,277.537,194.708z
			 M114.557,168.588h65.58l-96.22-71.88h-3.65L114.557,168.588z"/>
	</g>
	<g>
	</g>
</g>
<g>
</g>
<g>
</g>
<g>
</g>
<g>
</g>
<g>
</g>
<g>
</g>
<g>
</g>
<g>
</g>
<g>
</g>
<g>
</g>
<g>
</g>
<g>
</g>
<g>
</g>
<g>
</g>
<g>
</g>
</svg>
