<?xml version="1.0" encoding="iso-8859-1"?>
<!-- Generator: Adobe Illustrator 18.0.0, SVG Export Plug-In . SVG Version: 6.00 Build 0)  -->
<!DOCTYPE svg PUBLIC "-//W3C//DTD SVG 1.1//EN" "http://www.w3.org/Graphics/SVG/1.1/DTD/svg11.dtd">
<svg version="1.1" id="Capa_1" xmlns="http://www.w3.org/2000/svg" xmlns:xlink="http://www.w3.org/1999/xlink" x="0px" y="0px"
	 viewBox="0 0 297.5 297.5" style="enable-background:new 0 0 297.5 297.5;" xml:space="preserve">
<g>
	<g id="XMLID_39_">
		<g>
			<path style="fill:#8E725E;" d="M261.03,63.831v65.18h-9.79c2.07-9.93,0.69-20.04-4.16-29.74c-1.49-2.97-4.36-5-7.65-5.41
				c-22.55-2.82-45.41-2.82-67.96,0c-3.3,0.41-6.17,2.44-7.65,5.41c-4.85,9.7-6.23,19.81-4.16,29.74h-9.79v-65.18
				C185.95,50.551,224.95,50.551,261.03,63.831z"/>
			<rect x="133.49" y="148.861" style="fill:#8E725E;" width="143.91" height="45.66"/>
			<path style="fill:#D5C295;" d="M231.26,112.901c1.49,4.83,1.49,9.53,0,14.36c-17.15,1.75-34.47,1.75-51.62,0
				c-1.49-4.83-1.49-9.53,0-14.36C196.79,111.151,214.11,111.151,231.26,112.901z"/>
			<path style="fill:#FFCD02;" d="M82.13,99.731v29.28H20.1v-29.28H82.13z M58.07,114.371c0-1.82-0.75-3.61-2.04-4.91
				c-1.3-1.29-3.08-2.03-4.91-2.03c-1.83,0-3.62,0.74-4.91,2.03c-1.29,1.3-2.04,3.09-2.04,4.91c0,1.83,0.75,3.63,2.04,4.92
				s3.08,2.03,4.91,2.03c1.83,0,3.61-0.74,4.91-2.03C57.32,118.001,58.07,116.201,58.07,114.371z"/>
			<path d="M297.25,138.941v114.63c0,5.48-4.44,9.92-9.92,9.92c-5.48,0-9.93-4.44-9.93-9.92v-39.2H133.49v39.2
				c0,5.48-4.44,9.92-9.92,9.92s-9.93-4.44-9.93-9.92v-114.63c0-5.48,4.45-9.93,9.93-9.93h6.45v-71.95c0-4.02,2.42-7.64,6.13-9.17
				c44.69-18.51,93.91-18.51,138.6,0c3.71,1.53,6.13,5.15,6.13,9.17v71.95h6.45C292.81,129.011,297.25,133.461,297.25,138.941z
				 M277.4,194.521v-45.66H133.49v45.66H277.4z M261.03,129.011v-65.18c-36.08-13.28-75.08-13.28-111.16,0v65.18h9.79
				c-2.07-9.93-0.69-20.04,4.16-29.74c1.48-2.97,4.35-5,7.65-5.41c22.55-2.82,45.41-2.82,67.96,0c3.29,0.41,6.16,2.44,7.65,5.41
				c4.85,9.7,6.23,19.81,4.16,29.74H261.03z M231.26,127.261c1.49-4.83,1.49-9.53,0-14.36c-17.15-1.75-34.47-1.75-51.62,0
				c-1.49,4.83-1.49,9.53,0,14.36C196.79,129.011,214.11,129.011,231.26,127.261z"/>
			<path d="M101.98,89.811v163.76c0,5.48-4.44,9.92-9.92,9.92c-5.48,0-9.93-4.44-9.93-9.92v-104.71H20.1v104.71
				c0,5.48-4.44,9.92-9.92,9.92s-9.93-4.44-9.93-9.92V89.811c0-5.48,4.45-9.92,9.93-9.92h81.88
				C97.54,79.891,101.98,84.331,101.98,89.811z M82.13,129.011v-29.28H20.1v29.28H82.13z"/>
			<path d="M56.03,109.461c1.29,1.3,2.04,3.09,2.04,4.91c0,1.83-0.75,3.63-2.04,4.92c-1.3,1.29-3.08,2.03-4.91,2.03
				c-1.83,0-3.62-0.74-4.91-2.03s-2.04-3.09-2.04-4.92c0-1.82,0.75-3.61,2.04-4.91c1.29-1.29,3.08-2.03,4.91-2.03
				C52.95,107.431,54.73,108.171,56.03,109.461z"/>
		</g>
		<g>
		</g>
	</g>
</g>
<g>
</g>
<g>
</g>
<g>
</g>
<g>
</g>
<g>
</g>
<g>
</g>
<g>
</g>
<g>
</g>
<g>
</g>
<g>
</g>
<g>
</g>
<g>
</g>
<g>
</g>
<g>
</g>
<g>
</g>
</svg>
