<?xml version="1.0" encoding="iso-8859-1"?>
<!-- Generator: Adobe Illustrator 18.0.0, SVG Export Plug-In . SVG Version: 6.00 Build 0)  -->
<!DOCTYPE svg PUBLIC "-//W3C//DTD SVG 1.1//EN" "http://www.w3.org/Graphics/SVG/1.1/DTD/svg11.dtd">
<svg version="1.1" id="Capa_1" xmlns="http://www.w3.org/2000/svg" xmlns:xlink="http://www.w3.org/1999/xlink" x="0px" y="0px"
	 viewBox="0 0 297.496 297.496" style="enable-background:new 0 0 297.496 297.496;" xml:space="preserve">
<g id="XMLID_30_">
	<g>
		<rect x="109.114" y="91.979" style="fill:#3498DB;" width="29.6" height="178.6"/>
		<rect x="158.784" y="91.979" style="fill:#3498DB;" width="29.6" height="178.6"/>
		<path style="fill:#99ABD5;" d="M89.044,91.979v79.26h-60.59c1.7-27.75,10.44-55.15,26.27-79.26H89.044z"/>
		<path style="fill:#99ABD5;" d="M269.044,171.239h-60.6v-79.26h34.33C258.594,116.089,267.344,143.489,269.044,171.239z"/>
		<path style="fill:#C0392B;" d="M89.044,191.309v79.27h-34.32c-15.83-24.12-24.57-51.52-26.27-79.27H89.044z"/>
		<path style="fill:#C0392B;" d="M208.444,191.309h60.6c-1.7,27.75-10.45,55.15-26.27,79.27h-34.33V191.309z"/>
		<path d="M297.184,15.779c0.61,5.51-3.36,10.47-8.86,11.08l-129.54,14.39v30.66h89.3c3.26,0,6.33,1.59,8.21,4.26
			c21.74,30.94,33.24,67.29,33.24,105.11c0,37.81-11.5,74.16-33.24,105.1c-1.88,2.67-4.95,4.26-8.21,4.26H49.414
			c-3.27,0-6.33-1.59-8.21-4.26c-21.75-30.94-33.24-67.29-33.24-105.1c0-37.82,11.49-74.17,33.24-105.11
			c1.88-2.67,4.94-4.26,8.21-4.26h89.3v-28.43l-127.32,14.15c-0.38,0.04-0.75,0.06-1.13,0.06c-5.04,0-9.38-3.79-9.95-8.92
			c-0.62-5.51,3.35-10.47,8.86-11.08l138.53-15.39c0.01-0.01,0.02-0.01,0.03-0.01l138.37-15.37
			C291.614,6.309,296.574,10.269,297.184,15.779z M208.444,171.239h60.6c-1.7-27.75-10.45-55.15-26.27-79.26h-34.33V171.239z
			 M269.044,191.309h-60.6v79.27h34.33C258.594,246.459,267.344,219.059,269.044,191.309z M188.384,270.579v-178.6h-29.6v178.6
			H188.384z M138.714,270.579v-178.6h-29.6v178.6H138.714z M89.044,270.579v-79.27h-60.59c1.7,27.75,10.44,55.15,26.27,79.27H89.044
			z M89.044,171.239v-79.26h-34.32c-15.83,24.11-24.57,51.51-26.27,79.26H89.044z"/>
	</g>
	<g>
	</g>
</g>
<g>
</g>
<g>
</g>
<g>
</g>
<g>
</g>
<g>
</g>
<g>
</g>
<g>
</g>
<g>
</g>
<g>
</g>
<g>
</g>
<g>
</g>
<g>
</g>
<g>
</g>
<g>
</g>
<g>
</g>
</svg>
