<?xml version="1.0" encoding="iso-8859-1"?>
<!-- Generator: Adobe Illustrator 18.0.0, SVG Export Plug-In . SVG Version: 6.00 Build 0)  -->
<!DOCTYPE svg PUBLIC "-//W3C//DTD SVG 1.1//EN" "http://www.w3.org/Graphics/SVG/1.1/DTD/svg11.dtd">
<svg version="1.1" id="Capa_1" xmlns="http://www.w3.org/2000/svg" xmlns:xlink="http://www.w3.org/1999/xlink" x="0px" y="0px"
	 viewBox="0 0 297.5 297.5" style="enable-background:new 0 0 297.5 297.5;" xml:space="preserve">
<g>
	<g id="XMLID_45_">
		<g>
			<path style="fill:#D5C295;" d="M98.345,238.74v38.84h-12.78v-38.84c0-3.53,2.86-6.4,6.39-6.4
				C95.475,232.34,98.345,235.21,98.345,238.74z"/>
			<path style="fill:#D5C295;" d="M98.345,22.38v38.84c0,3.53-2.87,6.4-6.39,6.4c-3.53,0-6.39-2.87-6.39-6.4V22.38H98.345z"/>
			<path d="M231.605,148.01c0,37.58-3.47,73.02-9.77,99.78c-7.59,32.29-18.23,47.98-32.52,47.98c-14.29,0-24.93-15.69-32.52-47.98
				c-6.3-26.76-9.77-62.2-9.77-99.78c0-77.71,32.21-139.89,33.59-142.5c1.69-3.23,5.05-5.26,8.7-5.26c3.65,0,7.01,2.03,8.71,5.26
				C199.395,8.12,231.605,70.3,231.605,148.01z M203.745,238.6c2.18-10.22,3.95-21.73,5.28-34.06c-5.65,4.69-12.39,7.4-19.71,7.4
				c-7.32,0-14.06-2.71-19.71-7.4c1.33,12.33,3.1,23.84,5.28,34.06c5.99,28.04,12.49,35.5,14.43,37.17
				C191.255,274.1,197.755,266.64,203.745,238.6z M210.985,125.68c-3.2-38.34-13.88-71.37-21.67-91.21
				c-7.79,19.84-18.47,52.86-21.67,91.21c6.02-5.76,13.49-9.14,21.67-9.14C197.495,116.54,204.965,119.92,210.985,125.68z
				 M206.035,164.24c0-16.52-8.81-28.03-16.72-28.03s-16.72,11.51-16.72,28.03s8.81,28.03,16.72,28.03
				S206.035,180.76,206.035,164.24z"/>
			<path style="fill:#3498DB;" d="M209.025,204.54c-1.33,12.33-3.1,23.84-5.28,34.06c-5.99,28.04-12.49,35.5-14.43,37.17
				c-1.94-1.67-8.44-9.13-14.43-37.17c-2.18-10.22-3.95-21.73-5.28-34.06c5.65,4.69,12.39,7.4,19.71,7.4
				C196.635,211.94,203.375,209.23,209.025,204.54z"/>
			<path style="fill:#3498DB;" d="M189.315,34.47c7.79,19.84,18.47,52.87,21.67,91.21c-6.02-5.76-13.49-9.14-21.67-9.14
				c-8.18,0-15.65,3.38-21.67,9.14C170.845,87.33,181.525,54.31,189.315,34.47z"/>
			<path style="fill:#2980B9;" d="M189.315,136.21c7.91,0,16.72,11.51,16.72,28.03s-8.81,28.03-16.72,28.03
				s-16.72-11.51-16.72-28.03S181.405,136.21,189.315,136.21z"/>
			<path d="M118.015,238.74v48.68c0,5.43-4.4,9.83-9.83,9.83h-32.46c-5.43,0-9.83-4.4-9.83-9.83v-48.68
				c0-10.9,6.72-20.24,16.22-24.13V85.35c-9.5-3.89-16.22-13.23-16.22-24.13V12.54c0-5.43,4.4-9.83,9.83-9.83h32.46
				c5.43,0,9.83,4.4,9.83,9.83v48.68c0,10.9-6.72,20.24-16.23,24.13v129.26C111.295,218.5,118.015,227.84,118.015,238.74z
				 M98.345,277.58v-38.84c0-3.53-2.87-6.4-6.39-6.4c-3.53,0-6.39,2.87-6.39,6.4v38.84H98.345z M98.345,61.22V22.38h-12.78v38.84
				c0,3.53,2.86,6.4,6.39,6.4C95.475,67.62,98.345,64.75,98.345,61.22z"/>
		</g>
		<g>
		</g>
	</g>
</g>
<g>
</g>
<g>
</g>
<g>
</g>
<g>
</g>
<g>
</g>
<g>
</g>
<g>
</g>
<g>
</g>
<g>
</g>
<g>
</g>
<g>
</g>
<g>
</g>
<g>
</g>
<g>
</g>
<g>
</g>
</svg>
