<?xml version="1.0" encoding="iso-8859-1"?>
<!-- Generator: Adobe Illustrator 18.0.0, SVG Export Plug-In . SVG Version: 6.00 Build 0)  -->
<!DOCTYPE svg PUBLIC "-//W3C//DTD SVG 1.1//EN" "http://www.w3.org/Graphics/SVG/1.1/DTD/svg11.dtd">
<svg version="1.1" id="Capa_1" xmlns="http://www.w3.org/2000/svg" xmlns:xlink="http://www.w3.org/1999/xlink" x="0px" y="0px"
	 viewBox="0 0 297.5 297.5" style="enable-background:new 0 0 297.5 297.5;" xml:space="preserve">
<g>
	<g id="XMLID_39_">
		<g>
			<rect x="72.19" y="93.96" style="fill:#D95459;" width="14.63" height="14.62"/>
			<path style="fill:#D95459;" d="M75.31,206.75c8.66,0,15.7,7.05,15.7,15.71c0,8.66-7.04,15.71-15.7,15.71s-15.71-7.05-15.71-15.71
				C59.6,213.8,66.65,206.75,75.31,206.75z"/>
			<path style="fill:#D95459;" d="M190.69,134.58v77.88h-49.25v-77.88c0-12.85,10.46-23.31,23.31-23.31h2.63
				C180.23,111.27,190.69,121.73,190.69,134.58z"/>
			<path style="fill:#16A085;" d="M242.63,134.25v57.13c0,11.62-9.46,21.08-21.09,21.08h-10.85v-77.88
				c0-23.88-19.43-43.31-43.31-43.31h-2.63c-23.88,0-43.31,19.43-43.31,43.31v77.88h-11.86c-4.34-14.84-18.06-25.71-34.27-25.71
				c-16.22,0-29.93,10.87-34.27,25.69c-11.49-0.16-20.79-9.54-20.79-21.06V80.42c0-11.63,9.46-21.09,21.09-21.09h126.37
				C209.02,59.33,242.63,92.94,242.63,134.25z M106.82,118.58V83.96c0-5.52-4.48-10-10-10H62.19c-5.52,0-10,4.48-10,10v34.62
				c0,5.53,4.48,10,10,10h34.63C102.34,128.58,106.82,124.11,106.82,118.58z"/>
			<path d="M287.25,212.46c5.53,0,10,4.48,10,10c0,5.52-4.47,10-10,10H109.58c-4.34,14.83-18.06,25.71-34.27,25.71
				c-16.22,0-29.94-10.88-34.28-25.72c-22.51-0.16-40.78-18.52-40.78-41.07V80.42c0-22.66,18.43-41.09,41.09-41.09h126.37
				c52.34,0,94.92,42.58,94.92,94.92v57.13c0,7.7-2.14,14.91-5.84,21.08H287.25z M242.63,191.38v-57.13
				c0-41.31-33.61-74.92-74.92-74.92H41.34c-11.63,0-21.09,9.46-21.09,21.09v110.96c0,11.52,9.3,20.9,20.79,21.06
				c4.34-14.82,18.05-25.69,34.27-25.69c16.21,0,29.93,10.87,34.27,25.71h11.86v-77.88c0-23.88,19.43-43.31,43.31-43.31h2.63
				c23.88,0,43.31,19.43,43.31,43.31v77.88h10.85C233.17,212.46,242.63,203,242.63,191.38z M190.69,212.46v-77.88
				c0-12.85-10.46-23.31-23.31-23.31h-2.63c-12.85,0-23.31,10.46-23.31,23.31v77.88H190.69z M91.01,222.46
				c0-8.66-7.04-15.71-15.7-15.71S59.6,213.8,59.6,222.46c0,8.66,7.05,15.71,15.71,15.71S91.01,231.12,91.01,222.46z"/>
			<path d="M106.82,83.96v34.62c0,5.53-4.48,10-10,10H62.19c-5.52,0-10-4.47-10-10V83.96c0-5.52,4.48-10,10-10h34.63
				C102.34,73.96,106.82,78.44,106.82,83.96z M86.82,108.58V93.96H72.19v14.62H86.82z"/>
		</g>
		<g>
		</g>
	</g>
</g>
<g>
</g>
<g>
</g>
<g>
</g>
<g>
</g>
<g>
</g>
<g>
</g>
<g>
</g>
<g>
</g>
<g>
</g>
<g>
</g>
<g>
</g>
<g>
</g>
<g>
</g>
<g>
</g>
<g>
</g>
</svg>
