<?xml version="1.0" encoding="iso-8859-1"?>
<!-- Generator: Adobe Illustrator 18.0.0, SVG Export Plug-In . SVG Version: 6.00 Build 0)  -->
<!DOCTYPE svg PUBLIC "-//W3C//DTD SVG 1.1//EN" "http://www.w3.org/Graphics/SVG/1.1/DTD/svg11.dtd">
<svg version="1.1" id="Capa_1" xmlns="http://www.w3.org/2000/svg" xmlns:xlink="http://www.w3.org/1999/xlink" x="0px" y="0px"
	 viewBox="0 0 297.5 297.5" style="enable-background:new 0 0 297.5 297.5;" xml:space="preserve">
<g id="XMLID_32_">
	<g>
		<path style="fill:#9B59B6;" d="M99.825,264.63c3.54,0,6.42,2.89,6.42,6.43s-2.88,6.42-6.42,6.42c-3.54,0-6.42-2.88-6.42-6.42
			S96.285,264.63,99.825,264.63z"/>
		<path style="fill:#9B59B6;" d="M246.595,264.63c3.54,0,6.42,2.89,6.42,6.43s-2.88,6.42-6.42,6.42c-3.54,0-6.42-2.88-6.42-6.42
			S243.055,264.63,246.595,264.63z"/>
		<rect x="109.705" y="85.25" style="fill:#9B59B6;" width="12.85" height="143.31"/>
		<rect x="223.865" y="85.25" style="fill:#9B59B6;" width="12.85" height="143.31"/>
		<rect x="142.325" y="85.25" style="fill:#D95459;" width="61.77" height="143.31"/>
		<path d="M279.215,228.56c5.45,0,9.88,4.42,9.88,9.88c0,5.46-4.43,9.89-9.88,9.89h-19.64c7.89,4.52,13.21,13.01,13.21,22.73
			c0,14.44-11.75,26.19-26.19,26.19s-26.19-11.75-26.19-26.19c0-9.72,5.32-18.21,13.21-22.73h-120.81
			c7.89,4.52,13.21,13.01,13.21,22.73c0,14.44-11.75,26.19-26.19,26.19s-26.19-11.75-26.19-26.19c0-11.06,6.89-20.53,16.6-24.37
			c-18.95-5.25-32.91-22.65-32.91-43.25V45.14c0-13.85-11.27-25.12-25.12-25.12h-13.92c-5.46,0-9.88-4.43-9.88-9.89
			c0-5.45,4.42-9.88,9.88-9.88h13.92c24.75,0,44.89,20.14,44.89,44.89v158.3c0,9.4,5.19,17.6,12.85,21.91V75.36
			c0-5.45,4.42-9.88,9.88-9.88h39.04V54.36c0-11.85,9.64-21.49,21.5-21.49h25.69c11.86,0,21.5,9.64,21.5,21.49v11.12h39.04
			c5.46,0,9.88,4.43,9.88,9.88v153.2H279.215z M253.015,271.06c0-3.54-2.88-6.43-6.42-6.43c-3.54,0-6.42,2.89-6.42,6.43
			s2.88,6.42,6.42,6.42C250.135,277.48,253.015,274.6,253.015,271.06z M236.715,228.56V85.25h-12.85v143.31H236.715z
			 M204.095,228.56V85.25h-61.77v143.31H204.095z M187.785,65.48V54.36c0-0.95-0.77-1.73-1.73-1.73h-25.69
			c-0.96,0-1.73,0.78-1.73,1.73v11.12H187.785z M122.555,228.56V85.25h-12.85v143.31H122.555z M106.245,271.06
			c0-3.54-2.88-6.43-6.42-6.43c-3.54,0-6.42,2.89-6.42,6.43s2.88,6.42,6.42,6.42C103.365,277.48,106.245,274.6,106.245,271.06z"/>
	</g>
	<g>
	</g>
</g>
<g>
</g>
<g>
</g>
<g>
</g>
<g>
</g>
<g>
</g>
<g>
</g>
<g>
</g>
<g>
</g>
<g>
</g>
<g>
</g>
<g>
</g>
<g>
</g>
<g>
</g>
<g>
</g>
<g>
</g>
</svg>
