<?xml version="1.0" encoding="iso-8859-1"?>
<!-- Generator: Adobe Illustrator 18.0.0, SVG Export Plug-In . SVG Version: 6.00 Build 0)  -->
<!DOCTYPE svg PUBLIC "-//W3C//DTD SVG 1.1//EN" "http://www.w3.org/Graphics/SVG/1.1/DTD/svg11.dtd">
<svg version="1.1" id="Capa_1" xmlns="http://www.w3.org/2000/svg" xmlns:xlink="http://www.w3.org/1999/xlink" x="0px" y="0px"
	 viewBox="0 0 297.503 297.503" style="enable-background:new 0 0 297.503 297.503;" xml:space="preserve">
<g>
	<g id="XMLID_29_">
		<g>
			<polygon style="fill:#E67E22;" points="270.338,158.632 262.998,171.482 26.908,171.482 23.238,158.632 			"/>
			<polygon style="fill:#E67E22;" points="73.638,50.902 73.638,89.942 60.788,89.942 60.788,44.482 73.638,44.482 			"/>
			<path style="fill:#D95459;" d="M73.638,210.522c5.18,0,9.39,4.21,9.39,9.39c0,5.18-4.21,9.39-9.39,9.39s-9.39-4.21-9.39-9.39
				C64.248,214.732,68.458,210.522,73.638,210.522z"/>
			<path style="fill:#D95459;" d="M204.098,60.792v29.15H93.408v-29.15H204.098z M193.228,76.602c0-1.43-0.59-2.84-1.6-3.84
				c-1-1.01-2.41-1.6-3.84-1.6c-1.43,0-2.83,0.59-3.85,1.6c-1,1-1.59,2.41-1.59,3.84s0.59,2.84,1.59,3.84
				c1.02,1.01,2.43,1.6,3.85,1.6c1.43,0,2.84-0.59,3.84-1.6C192.638,79.442,193.228,78.032,193.228,76.602z M165.888,76.602
				c0-3-2.44-5.44-5.45-5.44c-2.99,0-5.42,2.44-5.42,5.44s2.43,5.44,5.42,5.44C163.448,82.042,165.888,79.602,165.888,76.602z
				 M138.538,76.602c0-3-2.43-5.44-5.44-5.44c-3,0-5.43,2.44-5.43,5.44s2.43,5.44,5.43,5.44
				C136.108,82.042,138.538,79.602,138.538,76.602z M111.188,76.602c0-1.43-0.57-2.84-1.59-3.84c-1.01-1.01-2.41-1.6-3.84-1.6
				c-1.44,0-2.83,0.59-3.85,1.6c-1.01,1-1.59,2.41-1.59,3.84s0.58,2.84,1.59,3.84c1.02,1.01,2.42,1.6,3.85,1.6s2.83-0.59,3.84-1.6
				C110.618,79.432,111.188,78.032,111.188,76.602z"/>
			<path style="fill:#D95459;" d="M236.718,109.882v28.99H44.478v-28.99H236.718z M204.098,124.372c0-1.43-0.58-2.83-1.59-3.85
				c-1.01-1.01-2.41-1.59-3.85-1.59c-1.42,0-2.83,0.58-3.84,1.59c-1.01,1.02-1.59,2.42-1.59,3.85s0.58,2.83,1.59,3.84
				c1.01,1.02,2.42,1.59,3.84,1.59c1.44,0,2.84-0.57,3.85-1.59C203.518,127.202,204.098,125.802,204.098,124.372z M177.808,124.372
				c0-3-2.43-5.44-5.44-5.44c-2.99,0-5.43,2.44-5.43,5.44s2.44,5.43,5.43,5.43C175.378,129.802,177.808,127.372,177.808,124.372z
				 M151.518,124.372c0-3-2.43-5.44-5.44-5.44c-2.99,0-5.43,2.44-5.43,5.44s2.44,5.43,5.43,5.43
				C149.088,129.802,151.518,127.372,151.518,124.372z M125.228,124.372c0-3-2.43-5.44-5.44-5.44c-3,0-5.43,2.44-5.43,5.44
				s2.43,5.43,5.43,5.43C122.798,129.802,125.228,127.372,125.228,124.372z M98.938,124.372c0-3-2.43-5.44-5.44-5.44
				c-3,0-5.44,2.44-5.44,5.44s2.44,5.43,5.44,5.43C96.508,129.802,98.938,127.372,98.938,124.372z M72.648,124.372
				c0-1.43-0.58-2.83-1.59-3.85c-1.01-1.01-2.42-1.59-3.85-1.59c-1.42,0-2.83,0.58-3.84,1.59c-1.01,1.02-1.59,2.41-1.59,3.85
				c0,1.43,0.58,2.83,1.59,3.84c1.01,1.02,2.42,1.59,3.84,1.59c1.43,0,2.84-0.57,3.85-1.59
				C72.068,127.202,72.648,125.802,72.648,124.372z"/>
			<path style="fill:#FFA800;" d="M251.698,191.252l-30.69,53.71c-2.84,4.97-8.16,8.06-13.89,8.06H62.268
				c-7.1,0-13.43-4.77-15.38-11.6l-14.33-50.17H251.698z M96.858,219.912c0-12.81-10.41-23.22-23.22-23.22s-23.23,10.41-23.23,23.22
				c0,12.81,10.42,23.23,23.23,23.23S96.858,232.722,96.858,219.912z"/>
			<path d="M295.918,143.792c1.77,3.05,1.78,6.8,0.03,9.86l-57.78,101.12c-6.35,11.11-18.25,18.02-31.05,18.02H62.268
				c-15.88,0-30.02-10.67-34.38-25.94l-27.26-95.38c-0.85-2.99-0.25-6.2,1.62-8.67c1.86-2.48,4.79-3.93,7.89-3.93h14.57v-38.88
				c0-5.46,4.43-9.88,9.89-9.88h6.42v-55.51c0-5.46,4.43-9.89,9.89-9.89h32.61c5.46,0,9.89,4.43,9.89,9.89v6.42h120.57
				c5.46,0,9.89,4.43,9.89,9.88v39.21h22.73c5.46,0,9.88,4.42,9.88,9.88v38.88h30.89
				C290.888,138.872,294.148,140.742,295.918,143.792z M262.998,171.482l7.34-12.85h-247.1l3.67,12.85H262.998z M221.008,244.962
				l30.69-53.71H32.558l14.33,50.17c1.95,6.83,8.28,11.6,15.38,11.6h144.85C212.848,253.022,218.168,249.932,221.008,244.962z
				 M236.718,138.872v-28.99H44.478v28.99H236.718z M204.098,89.942v-29.15H93.408v29.15H204.098z M73.638,89.942v-39.04v-6.42
				h-12.85v45.46H73.638z"/>
			<path d="M202.508,120.522c1.01,1.02,1.59,2.42,1.59,3.85s-0.58,2.83-1.59,3.84c-1.01,1.02-2.41,1.59-3.85,1.59
				c-1.42,0-2.83-0.57-3.84-1.59c-1.01-1.01-1.59-2.41-1.59-3.84s0.58-2.83,1.59-3.85c1.01-1.01,2.42-1.59,3.84-1.59
				C200.098,118.932,201.498,119.512,202.508,120.522z"/>
			<path d="M191.628,72.762c1.01,1,1.6,2.41,1.6,3.84s-0.59,2.84-1.6,3.84c-1,1.01-2.41,1.6-3.84,1.6c-1.42,0-2.83-0.59-3.85-1.6
				c-1-1-1.59-2.41-1.59-3.84s0.59-2.84,1.59-3.84c1.02-1.01,2.42-1.6,3.85-1.6C189.218,71.162,190.628,71.752,191.628,72.762z"/>
			<path d="M172.368,118.932c3.01,0,5.44,2.44,5.44,5.44s-2.43,5.43-5.44,5.43c-2.99,0-5.43-2.43-5.43-5.43
				S169.378,118.932,172.368,118.932z"/>
			<path d="M160.438,71.162c3.01,0,5.45,2.44,5.45,5.44s-2.44,5.44-5.45,5.44c-2.99,0-5.42-2.44-5.42-5.44
				S157.448,71.162,160.438,71.162z"/>
			<path d="M146.078,118.932c3.01,0,5.44,2.44,5.44,5.44s-2.43,5.43-5.44,5.43c-2.99,0-5.43-2.43-5.43-5.43
				S143.088,118.932,146.078,118.932z"/>
			<path d="M133.098,71.162c3.01,0,5.44,2.44,5.44,5.44s-2.43,5.44-5.44,5.44c-3,0-5.43-2.44-5.43-5.44
				S130.098,71.162,133.098,71.162z"/>
			<path d="M119.788,118.932c3.01,0,5.44,2.44,5.44,5.44s-2.43,5.43-5.44,5.43c-3,0-5.43-2.43-5.43-5.43
				S116.788,118.932,119.788,118.932z"/>
			<path d="M109.598,72.762c1.02,1,1.59,2.41,1.59,3.84s-0.57,2.83-1.59,3.84c-1.01,1.01-2.41,1.6-3.84,1.6s-2.83-0.59-3.85-1.6
				c-1.01-1-1.59-2.41-1.59-3.84s0.58-2.84,1.59-3.84c1.02-1.01,2.41-1.6,3.85-1.6C107.188,71.162,108.588,71.752,109.598,72.762z"
				/>
			<path d="M93.498,118.932c3.01,0,5.44,2.44,5.44,5.44s-2.43,5.43-5.44,5.43c-3,0-5.44-2.43-5.44-5.43
				S90.498,118.932,93.498,118.932z"/>
			<path d="M73.638,196.692c12.81,0,23.22,10.41,23.22,23.22c0,12.81-10.41,23.23-23.22,23.23s-23.23-10.42-23.23-23.23
				C50.408,207.102,60.828,196.692,73.638,196.692z M83.028,219.912c0-5.18-4.21-9.39-9.39-9.39s-9.39,4.21-9.39,9.39
				c0,5.18,4.21,9.39,9.39,9.39S83.028,225.092,83.028,219.912z"/>
			<path d="M71.058,120.522c1.01,1.02,1.59,2.42,1.59,3.85s-0.58,2.83-1.59,3.84c-1.01,1.02-2.42,1.59-3.85,1.59
				c-1.42,0-2.83-0.57-3.84-1.59c-1.01-1.01-1.59-2.41-1.59-3.84c0-1.44,0.58-2.83,1.59-3.85c1.01-1.01,2.42-1.59,3.84-1.59
				C68.638,118.932,70.048,119.512,71.058,120.522z"/>
		</g>
		<g>
		</g>
	</g>
</g>
<g>
</g>
<g>
</g>
<g>
</g>
<g>
</g>
<g>
</g>
<g>
</g>
<g>
</g>
<g>
</g>
<g>
</g>
<g>
</g>
<g>
</g>
<g>
</g>
<g>
</g>
<g>
</g>
<g>
</g>
</svg>
