<?xml version="1.0" encoding="iso-8859-1"?>
<!-- Generator: Adobe Illustrator 18.0.0, SVG Export Plug-In . SVG Version: 6.00 Build 0)  -->
<!DOCTYPE svg PUBLIC "-//W3C//DTD SVG 1.1//EN" "http://www.w3.org/Graphics/SVG/1.1/DTD/svg11.dtd">
<svg version="1.1" id="Capa_1" xmlns="http://www.w3.org/2000/svg" xmlns:xlink="http://www.w3.org/1999/xlink" x="0px" y="0px"
	 viewBox="0 0 297.5 297.5" style="enable-background:new 0 0 297.5 297.5;" xml:space="preserve">
<g>
	<g id="XMLID_24_">
		<g>
			<path style="fill:#D5C295;" d="M244.865,32.78v231.94c0,5.41-3.39,10.03-8.15,11.89V20.89
				C241.475,22.75,244.865,27.37,244.865,32.78z"/>
			<path style="fill:#D5C295;" d="M223.865,20.02v257.46h-10.77c1.68-3.92,2.61-8.23,2.61-12.76V32.78c0-4.53-0.93-8.84-2.61-12.76
				H223.865z"/>
			<path style="fill:#2ECC71;" d="M195.945,32.78v231.94c0,7.04-5.73,12.76-12.77,12.76H52.635V20.02h130.54
				C190.215,20.02,195.945,25.74,195.945,32.78z M179.635,107.98V59.06c0-3.55-2.88-6.43-6.43-6.43h-97.84
				c-3.55,0-6.43,2.88-6.43,6.43v48.92c0,3.55,2.88,6.42,6.43,6.42h97.84C176.755,114.4,179.635,111.53,179.635,107.98z"/>
			<rect x="81.785" y="65.48" style="fill:#FFA800;" width="85" height="36.08"/>
			<path d="M264.635,32.78v231.94c0,17.94-14.6,32.53-32.54,32.53H42.745c-5.46,0-9.88-4.43-9.88-9.88V10.13
				c0-5.45,4.42-9.88,9.88-9.88h189.35C250.035,0.25,264.635,14.84,264.635,32.78z M244.865,264.72V32.78
				c0-5.41-3.39-10.03-8.15-11.89v255.72C241.475,274.75,244.865,270.13,244.865,264.72z M223.865,277.48V20.02h-10.77
				c1.68,3.92,2.61,8.23,2.61,12.76v231.94c0,4.53-0.93,8.84-2.61,12.76H223.865z M195.945,264.72V32.78
				c0-7.04-5.73-12.76-12.77-12.76H52.635v257.46h130.54C190.215,277.48,195.945,271.76,195.945,264.72z"/>
			<path d="M179.635,59.06v48.92c0,3.55-2.88,6.42-6.43,6.42h-97.84c-3.55,0-6.43-2.87-6.43-6.42V59.06c0-3.55,2.88-6.43,6.43-6.43
				h97.84C176.755,52.63,179.635,55.51,179.635,59.06z M166.785,101.56V65.48h-85v36.08H166.785z"/>
		</g>
		<g>
		</g>
	</g>
</g>
<g>
</g>
<g>
</g>
<g>
</g>
<g>
</g>
<g>
</g>
<g>
</g>
<g>
</g>
<g>
</g>
<g>
</g>
<g>
</g>
<g>
</g>
<g>
</g>
<g>
</g>
<g>
</g>
<g>
</g>
</svg>
