<?xml version="1.0" encoding="iso-8859-1"?>
<!-- Generator: Adobe Illustrator 18.0.0, SVG Export Plug-In . SVG Version: 6.00 Build 0)  -->
<!DOCTYPE svg PUBLIC "-//W3C//DTD SVG 1.1//EN" "http://www.w3.org/Graphics/SVG/1.1/DTD/svg11.dtd">
<svg version="1.1" id="Capa_1" xmlns="http://www.w3.org/2000/svg" xmlns:xlink="http://www.w3.org/1999/xlink" x="0px" y="0px"
	 viewBox="0 0 297.5 297.5" style="enable-background:new 0 0 297.5 297.5;" xml:space="preserve">
<g id="XMLID_19_">
	<g>
		<rect x="150.48" y="215.71" style="fill:#5E4534;" width="12.85" height="61.77"/>
		<rect x="150.48" y="117.86" style="fill:#5E4534;" width="12.85" height="12.85"/>
		<path style="fill:#5E4534;" d="M163.33,26.44v6.43h-12.85v-6.43c0-3.54,2.88-6.42,6.43-6.42
			C160.45,20.02,163.33,22.9,163.33,26.44z"/>
		<polygon style="fill:#A38671;" points="195.95,52.63 195.95,98.1 65.17,98.1 53.8,75.36 65.17,52.63 		"/>
		<polygon style="fill:#A38671;" points="232.34,150.48 243.7,173.21 232.34,195.94 101.56,195.94 101.56,150.48 		"/>
		<path d="M263.59,168.79c1.39,2.78,1.39,6.06,0,8.84l-16.3,32.62c-1.68,3.35-5.1,5.46-8.84,5.46H183.1v61.77h39.04
			c5.46,0,9.88,4.43,9.88,9.89c0,5.45-4.42,9.88-9.88,9.88H91.68c-5.46,0-9.89-4.43-9.89-9.88c0-5.46,4.43-9.89,9.89-9.89h39.04
			v-61.77H91.68c-5.46,0-9.89-4.42-9.89-9.88V140.6c0-5.46,4.43-9.89,9.89-9.89h39.04v-12.85H59.06c-3.74,0-7.17-2.11-8.84-5.46
			L33.91,79.78c-1.39-2.78-1.39-6.05,0-8.83l16.31-32.62c1.67-3.35,5.1-5.46,8.84-5.46h71.66v-6.43c0-14.44,11.74-26.19,26.19-26.19
			c14.44,0,26.19,11.75,26.19,26.19v6.43h22.73c5.46,0,9.88,4.42,9.88,9.88v65.23c0,5.46-4.42,9.88-9.88,9.88H183.1v12.85h55.35
			c3.74,0,7.16,2.12,8.84,5.47L263.59,168.79z M243.7,173.21l-11.36-22.73H101.56v45.46h130.78L243.7,173.21z M195.95,98.1V52.63
			H65.17L53.8,75.36L65.17,98.1H195.95z M163.33,277.48v-61.77h-12.85v61.77H163.33z M163.33,130.71v-12.85h-12.85v12.85H163.33z
			 M163.33,32.87v-6.43c0-3.54-2.88-6.42-6.42-6.42c-3.55,0-6.43,2.88-6.43,6.42v6.43H163.33z"/>
	</g>
	<g>
	</g>
</g>
<g>
</g>
<g>
</g>
<g>
</g>
<g>
</g>
<g>
</g>
<g>
</g>
<g>
</g>
<g>
</g>
<g>
</g>
<g>
</g>
<g>
</g>
<g>
</g>
<g>
</g>
<g>
</g>
<g>
</g>
</svg>
