<?xml version="1.0" encoding="iso-8859-1"?>
<!-- Generator: Adobe Illustrator 18.0.0, SVG Export Plug-In . SVG Version: 6.00 Build 0)  -->
<!DOCTYPE svg PUBLIC "-//W3C//DTD SVG 1.1//EN" "http://www.w3.org/Graphics/SVG/1.1/DTD/svg11.dtd">
<svg version="1.1" id="Capa_1" xmlns="http://www.w3.org/2000/svg" xmlns:xlink="http://www.w3.org/1999/xlink" x="0px" y="0px"
	 viewBox="0 0 297.5 297.5" style="enable-background:new 0 0 297.5 297.5;" xml:space="preserve">
<g id="XMLID_49_">
	<g>
		<path style="fill:#E67E22;" d="M132.03,262.05c3.64,0,6.59,2.95,6.59,6.58s-2.95,6.59-6.59,6.59h-31.07
			c-23.37,0-42.39-19.02-42.39-42.39v-33.38c2.35,0.26,4.74,0.4,7.16,0.4h6.01v31.46c0,16.95,13.79,30.74,30.74,30.74H132.03z"/>
		<path style="fill:#E67E22;" d="M71.74,22.28v46.61h-6.01c-2.42,0-4.81,0.14-7.16,0.4V22.28H71.74z"/>
		<path style="fill:#3498DB;" d="M231.77,89.16c24.93,0,45.22,20.28,45.22,45.21s-20.29,45.22-45.22,45.22h-46.3
			c-4.45-16.1-19.22-27.96-36.72-27.96c-17.49,0-32.27,11.86-36.71,27.96H65.73c-24.93,0-45.21-20.29-45.21-45.22
			S40.8,89.16,65.73,89.16H231.77z"/>
		<path d="M231.77,68.89c36.11,0,65.48,29.38,65.48,65.48c0,36.11-29.37,65.48-65.48,65.48h-55.06c-5.6,0-10.14-4.53-10.14-10.13
			c0-9.83-7.99-17.82-17.82-17.82c-9.82,0-17.82,7.99-17.82,17.82c0,5.6-4.53,10.13-10.13,10.13H92.01v31.46
			c0,5.77,4.7,10.47,10.47,10.47h29.55c14.81,0,26.86,12.05,26.86,26.85c0,14.81-12.05,26.86-26.86,26.86h-31.07
			c-34.55,0-62.66-28.11-62.66-62.66v-39.02c-22.44-10.4-38.05-33.12-38.05-59.44c0-26.31,15.61-49.04,38.05-59.43V12.15
			c0-5.6,4.54-10.14,10.14-10.14h33.44c5.59,0,10.13,4.54,10.13,10.14v56.74H231.77z M276.99,134.37
			c0-24.93-20.29-45.21-45.22-45.21H65.73c-24.93,0-45.21,20.28-45.21,45.21s20.28,45.22,45.21,45.22h46.31
			c4.44-16.1,19.22-27.96,36.71-27.96c17.5,0,32.27,11.86,36.72,27.96h46.3C256.7,179.59,276.99,159.3,276.99,134.37z
			 M138.62,268.63c0-3.63-2.95-6.58-6.59-6.58h-29.55c-16.95,0-30.74-13.79-30.74-30.74v-31.46h-6.01c-2.42,0-4.81-0.14-7.16-0.4
			v33.38c0,23.37,19.02,42.39,42.39,42.39h31.07C135.67,275.22,138.62,272.26,138.62,268.63z M71.74,68.89V22.28H58.57v47.01
			c2.35-0.26,4.74-0.4,7.16-0.4H71.74z"/>
	</g>
	<g>
	</g>
</g>
<g>
</g>
<g>
</g>
<g>
</g>
<g>
</g>
<g>
</g>
<g>
</g>
<g>
</g>
<g>
</g>
<g>
</g>
<g>
</g>
<g>
</g>
<g>
</g>
<g>
</g>
<g>
</g>
<g>
</g>
</svg>
