<?xml version="1.0" encoding="iso-8859-1"?>
<!-- Generator: Adobe Illustrator 18.0.0, SVG Export Plug-In . SVG Version: 6.00 Build 0)  -->
<!DOCTYPE svg PUBLIC "-//W3C//DTD SVG 1.1//EN" "http://www.w3.org/Graphics/SVG/1.1/DTD/svg11.dtd">
<svg version="1.1" id="Capa_1" xmlns="http://www.w3.org/2000/svg" xmlns:xlink="http://www.w3.org/1999/xlink" x="0px" y="0px"
	 viewBox="0 0 297.5 297.5" style="enable-background:new 0 0 297.5 297.5;" xml:space="preserve">
<g>
	<g id="XMLID_22_">
		<g>
			<path style="fill:#D95459;" d="M277.49,85.25v175.93h-61.78V85.25h29.16v153.19c0,5.46,4.43,9.89,9.88,9.89
				c5.46,0,9.89-4.43,9.89-9.89V85.25H277.49z"/>
			<path style="fill:#FFA800;" d="M147.02,248.33v2.47c0,5.72-4.65,10.38-10.37,10.38H46.71c-5.73,0-10.38-4.66-10.38-10.38v-2.47
				H147.02z"/>
			<path style="fill:#FFA800;" d="M147.02,161.1v2.23H36.33v-2.23c0-23.84,19.4-43.24,43.24-43.24h24.21
				C127.63,117.86,147.02,137.26,147.02,161.1z"/>
			<path d="M297.25,75.36v195.7c0,5.46-4.42,9.88-9.88,9.88h-81.54c-5.46,0-9.88-4.42-9.88-9.88V75.36c0-5.45,4.42-9.88,9.88-9.88
				h39.04V26.44c0-5.46,4.43-9.88,9.88-9.88h32.62c5.46,0,9.88,4.42,9.88,9.88s-4.42,9.88-9.88,9.88h-22.73v29.16h22.73
				C292.83,65.48,297.25,69.91,297.25,75.36z M277.49,261.18V85.25h-12.85v153.19c0,5.46-4.43,9.89-9.89,9.89
				c-5.45,0-9.88-4.43-9.88-9.89V85.25h-29.16v175.93H277.49z"/>
			<path d="M173.21,195.94c5.46,0,9.89,4.43,9.89,9.89c0,5.46-4.43,9.88-9.89,9.88H10.14c-5.46,0-9.89-4.42-9.89-9.88
				c0-5.46,4.43-9.89,9.89-9.89H173.21z"/>
			<path d="M166.79,238.44v12.36c0,16.62-13.52,30.14-30.14,30.14H46.71c-16.63,0-30.15-13.52-30.15-30.14v-12.36
				c0-5.46,4.43-9.88,9.88-9.88h130.47C162.37,228.56,166.79,232.98,166.79,238.44z M147.02,250.8v-2.47H36.33v2.47
				c0,5.72,4.65,10.38,10.38,10.38h89.94C142.37,261.18,147.02,256.52,147.02,250.8z"/>
			<path d="M166.79,161.1v12.11c0,5.46-4.42,9.89-9.88,9.89H26.44c-5.45,0-9.88-4.43-9.88-9.89V161.1c0-34.74,28.27-63,63.01-63
				h24.21C138.53,98.1,166.79,126.36,166.79,161.1z M147.02,163.33v-2.23c0-23.84-19.39-43.24-43.24-43.24H79.57
				c-23.84,0-43.24,19.4-43.24,43.24v2.23H147.02z"/>
		</g>
		<g>
		</g>
	</g>
</g>
<g>
</g>
<g>
</g>
<g>
</g>
<g>
</g>
<g>
</g>
<g>
</g>
<g>
</g>
<g>
</g>
<g>
</g>
<g>
</g>
<g>
</g>
<g>
</g>
<g>
</g>
<g>
</g>
<g>
</g>
</svg>
