<?xml version="1.0" encoding="iso-8859-1"?>
<!-- Generator: Adobe Illustrator 18.0.0, SVG Export Plug-In . SVG Version: 6.00 Build 0)  -->
<!DOCTYPE svg PUBLIC "-//W3C//DTD SVG 1.1//EN" "http://www.w3.org/Graphics/SVG/1.1/DTD/svg11.dtd">
<svg version="1.1" id="Capa_1" xmlns="http://www.w3.org/2000/svg" xmlns:xlink="http://www.w3.org/1999/xlink" x="0px" y="0px"
	 viewBox="0 0 297.499 297.499" style="enable-background:new 0 0 297.499 297.499;" xml:space="preserve">
<g id="XMLID_37_">
	<g>
		<path style="fill:#745EC5;" d="M273.966,125.259l-29.96,69.23H53.496l-29.96-69.23c21.25-8.45,43.22-14.64,65.51-18.6v28.63
			c0,5.54,4.49,10.03,10.04,10.03c5.54,0,10.03-4.49,10.03-10.03v-31.61c26.32-3.08,52.94-3.08,79.27,0v31.61
			c0,5.54,4.49,10.03,10.03,10.03c5.54,0,10.03-4.49,10.03-10.03v-28.63C230.746,110.619,252.706,116.809,273.966,125.259z"/>
		<polygon style="fill:#8E44AD;" points="237.926,208.539 219.326,251.509 78.166,251.509 59.576,208.539 		"/>
		<path d="M296.546,116.199c0.98,2.48,0.93,5.24-0.12,7.68l-61.3,141.65c-1.59,3.67-5.21,6.05-9.21,6.05H71.576
			c-4,0-7.62-2.38-9.21-6.05l-61.29-141.65c-1.06-2.44-1.1-5.2-0.12-7.68c0.98-2.47,2.9-4.45,5.34-5.51
			c26.74-11.57,54.41-19.76,82.75-24.54v-0.53c0-32.92,26.78-59.7,59.7-59.7s59.7,26.78,59.7,59.7v0.53
			c28.34,4.78,56.02,12.97,82.75,24.54C293.646,111.749,295.566,113.729,296.546,116.199z M244.006,194.489l29.96-69.23
			c-21.26-8.45-43.22-14.64-65.52-18.6v28.63c0,5.54-4.49,10.03-10.03,10.03c-5.54,0-10.03-4.49-10.03-10.03v-31.61
			c-26.33-3.08-52.95-3.08-79.27,0v31.61c0,5.54-4.49,10.03-10.03,10.03c-5.55,0-10.04-4.49-10.04-10.03v-28.63
			c-22.29,3.96-44.26,10.15-65.51,18.6l29.96,69.23H244.006z M219.326,251.509l18.6-42.97H59.576l18.59,42.97H219.326z
			 M188.316,83.359c-1.18-20.81-18.47-37.37-39.57-37.37c-21.09,0-38.38,16.56-39.56,37.37c13.07-1.44,26.27-2.17,39.56-2.17
			C162.046,81.189,175.246,81.919,188.316,83.359z"/>
	</g>
	<g>
	</g>
</g>
<g>
</g>
<g>
</g>
<g>
</g>
<g>
</g>
<g>
</g>
<g>
</g>
<g>
</g>
<g>
</g>
<g>
</g>
<g>
</g>
<g>
</g>
<g>
</g>
<g>
</g>
<g>
</g>
<g>
</g>
</svg>
