<?xml version="1.0" encoding="iso-8859-1"?>
<!-- Generator: Adobe Illustrator 18.0.0, SVG Export Plug-In . SVG Version: 6.00 Build 0)  -->
<!DOCTYPE svg PUBLIC "-//W3C//DTD SVG 1.1//EN" "http://www.w3.org/Graphics/SVG/1.1/DTD/svg11.dtd">
<svg version="1.1" id="Capa_1" xmlns="http://www.w3.org/2000/svg" xmlns:xlink="http://www.w3.org/1999/xlink" x="0px" y="0px"
	 viewBox="0 0 297.502 297.502" style="enable-background:new 0 0 297.502 297.502;" xml:space="preserve">
<g id="XMLID_18_">
	<g>
		<path style="fill:#8E725E;" d="M184.578,178.191h-71.65c2.18-54.44,21.64-87.44,35.82-87.44
			C162.938,90.751,182.398,123.751,184.578,178.191z"/>
		<polygon style="fill:#8E725E;" points="250.988,198.391 268.278,224.321 29.228,224.321 46.518,198.391 		"/>
		<path style="fill:#D5C295;" d="M111.858,98.001c-10.88,19.3-17.94,47.45-19.15,80.19h-40.98
			C55.488,141.841,79.288,111.361,111.858,98.001z"/>
		<path style="fill:#D5C295;" d="M245.768,178.191h-40.97c-1.21-32.74-8.28-60.89-19.15-80.19
			C218.218,111.361,242.018,141.841,245.768,178.191z"/>
		<path d="M295.558,228.821c2.06,3.1,2.26,7.08,0.5,10.37c-1.76,3.28-5.18,5.33-8.91,5.33h-276.8c-3.72,0-7.14-2.05-8.9-5.33
			c-1.76-3.29-1.57-7.27,0.5-10.37l29.1-43.65c1.57-60.11,48.41-109.13,107.6-114.19v-7.9c0-5.58,4.52-10.1,10.1-10.1
			s10.11,4.52,10.11,10.1v7.9c59.19,5.06,106.03,54.08,107.6,114.19L295.558,228.821z M268.278,224.321l-17.29-25.93H46.518
			l-17.29,25.93H268.278z M204.798,178.191h40.97c-3.75-36.35-27.55-66.83-60.12-80.19
			C196.518,117.301,203.588,145.451,204.798,178.191z M112.928,178.191h71.65c-2.18-54.44-21.64-87.44-35.83-87.44
			C134.568,90.751,115.108,123.751,112.928,178.191z M92.708,178.191c1.21-32.74,8.27-60.89,19.15-80.19
			c-32.57,13.36-56.37,43.84-60.13,80.19H92.708z"/>
	</g>
	<g>
	</g>
</g>
<g>
</g>
<g>
</g>
<g>
</g>
<g>
</g>
<g>
</g>
<g>
</g>
<g>
</g>
<g>
</g>
<g>
</g>
<g>
</g>
<g>
</g>
<g>
</g>
<g>
</g>
<g>
</g>
<g>
</g>
</svg>
