<?xml version="1.0" encoding="iso-8859-1"?>
<!-- Generator: Adobe Illustrator 18.0.0, SVG Export Plug-In . SVG Version: 6.00 Build 0)  -->
<!DOCTYPE svg PUBLIC "-//W3C//DTD SVG 1.1//EN" "http://www.w3.org/Graphics/SVG/1.1/DTD/svg11.dtd">
<svg version="1.1" id="Capa_1" xmlns="http://www.w3.org/2000/svg" xmlns:xlink="http://www.w3.org/1999/xlink" x="0px" y="0px"
	 viewBox="0 0 297.5 297.5" style="enable-background:new 0 0 297.5 297.5;" xml:space="preserve">
<g id="XMLID_23_">
	<g>
		<path style="fill:#FFA800;" d="M187.79,248.33v24.29c0,2.68-2.18,4.86-4.86,4.86h-68.36c-2.68,0-4.86-2.18-4.86-4.86v-24.29
			H187.79z"/>
		<path style="fill:#FFA800;" d="M138.87,20.63v159.01h-8.79c-12.8-35.37-20.37-73.88-20.37-104.28
			C109.71,33.2,123.45,22.93,138.87,20.63z"/>
		<path style="fill:#FFA800;" d="M197.32,25.07c27.48,7.44,39.4,23.43,39.4,50.29c0,30.17-15.57,68.86-41.8,104.28h-6.54
			c12.25-35.83,19.18-73.16,19.18-104.28C207.56,53.75,204.19,37.18,197.32,25.07z"/>
		<path style="fill:#C0392B;" d="M187.79,75.36c0,30.4-7.56,68.91-20.36,104.28h-8.79V20.63C174.06,22.93,187.79,33.2,187.79,75.36z
			"/>
		<path style="fill:#C0392B;" d="M109.13,179.64h-6.54c-26.24-35.42-41.8-74.11-41.8-104.28c0-26.86,11.91-42.85,39.39-50.29
			c-6.86,12.11-10.23,28.68-10.23,50.29C89.95,106.48,96.87,143.81,109.13,179.64z"/>
		<path d="M222.63,13.79c22.47,12.11,33.85,32.83,33.85,61.57c0,36-27.22,77.38-51.11,122.34c-3.82,7.18-10.29,30.86-10.29,30.86
			h2.6c5.45,0,9.88,4.42,9.88,9.88v34.18c0,13.58-11.05,24.63-24.63,24.63h-68.36c-13.58,0-24.62-11.05-24.62-24.63v-34.18
			c0-5.46,4.42-9.88,9.88-9.88h2.59c0,0-6.47-23.68-10.28-30.86c-23.89-44.96-51.12-86.34-51.12-122.34
			c0-28.74,11.39-49.46,33.85-61.57c17.12-9.24,40.6-13.54,73.88-13.54C182.04,0.25,205.52,4.55,222.63,13.79z M236.72,75.36
			c0-26.86-11.92-42.85-39.4-50.29c6.87,12.11,10.24,28.68,10.24,50.29c0,31.12-6.93,68.45-19.18,104.28h6.54
			C221.15,144.22,236.72,105.53,236.72,75.36z M187.79,272.62v-24.29h-78.08v24.29c0,2.68,2.18,4.86,4.86,4.86h68.36
			C185.61,277.48,187.79,275.3,187.79,272.62z M174.24,228.56l9.72-29.16h-25.32v29.16H174.24z M167.43,179.64
			c12.8-35.37,20.36-73.88,20.36-104.28c0-42.16-13.73-52.43-29.15-54.73v159.01H167.43z M138.87,228.56V199.4h-25.33l9.72,29.16
			H138.87z M138.87,179.64V20.63c-15.42,2.3-29.16,12.57-29.16,54.73c0,30.4,7.57,68.91,20.37,104.28H138.87z M102.59,179.64h6.54
			c-12.26-35.83-19.18-73.16-19.18-104.28c0-21.61,3.37-38.18,10.23-50.29C72.7,32.51,60.79,48.5,60.79,75.36
			C60.79,105.53,76.35,144.22,102.59,179.64z"/>
	</g>
	<g>
	</g>
</g>
<g>
</g>
<g>
</g>
<g>
</g>
<g>
</g>
<g>
</g>
<g>
</g>
<g>
</g>
<g>
</g>
<g>
</g>
<g>
</g>
<g>
</g>
<g>
</g>
<g>
</g>
<g>
</g>
<g>
</g>
</svg>
