<?xml version="1.0" encoding="iso-8859-1"?>
<!-- Generator: Adobe Illustrator 18.0.0, SVG Export Plug-In . SVG Version: 6.00 Build 0)  -->
<!DOCTYPE svg PUBLIC "-//W3C//DTD SVG 1.1//EN" "http://www.w3.org/Graphics/SVG/1.1/DTD/svg11.dtd">
<svg version="1.1" id="Capa_1" xmlns="http://www.w3.org/2000/svg" xmlns:xlink="http://www.w3.org/1999/xlink" x="0px" y="0px"
	 viewBox="0 0 297.5 297.5" style="enable-background:new 0 0 297.5 297.5;" xml:space="preserve">
<g>
	<g id="XMLID_35_">
		<g>
			<path style="fill:#FFA800;" d="M164.15,170.77l-45.41,45.41c-2.49-4.7-3.92-10.05-3.92-15.73c0-18.53,15.08-33.6,33.6-33.6
				C154.1,166.85,159.45,168.27,164.15,170.77z"/>
			<path style="fill:#FFA800;" d="M178.1,184.72c2.5,4.7,3.92,10.05,3.92,15.73c0,18.53-15.07,33.6-33.6,33.6
				c-5.68,0-11.03-1.42-15.72-3.92L178.1,184.72z"/>
			<path style="fill:#A5C63B;" d="M211.66,73.14v204.38H85.85V166.06c0-23.53,19.14-42.68,42.67-42.68h36.39
				c20.5,0,37.18-16.68,37.18-37.18V73.11c0-11.64-4.79-23.01-13.13-31.19c-8.27-8.11-19.07-12.46-30.49-12.24
				c-18.17,0.34-34.18,12.14-39.84,29.36c-0.69,2.1-2.52,3.5-4.55,3.5h-0.2c-2.17,0-3.4-1.36-3.83-1.94
				c-0.51-0.71-1.29-2.18-0.68-4.09c6.96-21.89,26.99-36.53,49.92-36.53c0.13,0,0.26,0,0.4,0.01
				C188.35,20.2,211.66,44.04,211.66,73.14z M201.76,200.45c0-29.41-23.93-53.33-53.34-53.33c-29.4,0-53.33,23.92-53.33,53.33
				s23.93,53.33,53.33,53.33C177.83,253.78,201.76,229.86,201.76,200.45z"/>
			<path d="M231.39,73.14v214.24c0,5.45-4.41,9.87-9.86,9.87H75.98c-5.45,0-9.87-4.42-9.87-9.87V166.06
				c0-34.42,28-62.41,62.41-62.41h36.39c9.62,0,17.44-7.83,17.44-17.45V73.11c0-6.37-2.63-12.61-7.22-17.11
				c-4.45-4.37-10.26-6.72-16.29-6.6c-9.79,0.19-18.42,6.54-21.47,15.81c-3.35,10.21-12.71,17.06-23.29,17.06h-0.2
				c-7.78,0-15.16-3.74-19.75-10.02c-4.64-6.34-5.94-14.25-3.56-21.72c9.57-30.13,37.15-50.28,68.71-50.28c0.19,0,0.37,0,0.55,0
				C199.29,0.54,231.39,33.24,231.39,73.14z M211.66,277.52V73.14c0-29.1-23.31-52.94-51.97-53.15c-0.14-0.01-0.27-0.01-0.4-0.01
				c-22.93,0-42.96,14.64-49.92,36.53c-0.61,1.91,0.17,3.38,0.68,4.09c0.43,0.58,1.66,1.94,3.83,1.94h0.2c2.03,0,3.86-1.4,4.55-3.5
				c5.66-17.22,21.67-29.02,39.84-29.36c11.42-0.22,22.22,4.13,30.49,12.24c8.34,8.18,13.13,19.55,13.13,31.19V86.2
				c0,20.5-16.68,37.18-37.18,37.18h-36.39c-23.53,0-42.67,19.15-42.67,42.68v111.46H211.66z"/>
			<path d="M148.42,147.12c29.41,0,53.34,23.92,53.34,53.33s-23.93,53.33-53.34,53.33c-29.4,0-53.33-23.92-53.33-53.33
				S119.02,147.12,148.42,147.12z M182.02,200.45c0-5.68-1.42-11.03-3.92-15.73l-45.4,45.41c4.69,2.5,10.04,3.92,15.72,3.92
				C166.95,234.05,182.02,218.98,182.02,200.45z M118.74,216.18l45.41-45.41c-4.7-2.5-10.05-3.92-15.73-3.92
				c-18.52,0-33.6,15.07-33.6,33.6C114.82,206.13,116.25,211.48,118.74,216.18z"/>
		</g>
		<g>
		</g>
	</g>
</g>
<g>
</g>
<g>
</g>
<g>
</g>
<g>
</g>
<g>
</g>
<g>
</g>
<g>
</g>
<g>
</g>
<g>
</g>
<g>
</g>
<g>
</g>
<g>
</g>
<g>
</g>
<g>
</g>
<g>
</g>
</svg>
