<?xml version="1.0" encoding="iso-8859-1"?>
<!-- Generator: Adobe Illustrator 18.0.0, SVG Export Plug-In . SVG Version: 6.00 Build 0)  -->
<!DOCTYPE svg PUBLIC "-//W3C//DTD SVG 1.1//EN" "http://www.w3.org/Graphics/SVG/1.1/DTD/svg11.dtd">
<svg version="1.1" id="Capa_1" xmlns="http://www.w3.org/2000/svg" xmlns:xlink="http://www.w3.org/1999/xlink" x="0px" y="0px"
	 viewBox="0 0 297.5 297.5" style="enable-background:new 0 0 297.5 297.5;" xml:space="preserve">
<g id="XMLID_28_">
	<g>
		<path style="fill:#FFA800;" d="M267.96,201.64c5.56,0,10.09,4.52,10.09,10.08s-4.53,10.09-10.09,10.09s-10.08-4.53-10.08-10.09
			S262.4,201.64,267.96,201.64z"/>
		<path style="fill:#3498DB;" d="M205.94,236.61v13.34c0,12.18-9.9,22.09-22.09,22.09h-9.46c-12.18,0-22.09-9.91-22.09-22.09v-13.34
			H205.94z"/>
		<path style="fill:#3498DB;" d="M78.46,236.61v13.34c0,12.18-9.91,22.09-22.09,22.09H46.9c-12.18,0-22.09-9.91-22.09-22.09v-13.34
			H78.46z"/>
		<path style="fill:#3498DB;" d="M78.46,76.58v13.34H24.81V76.58c0-12.19,9.91-22.09,22.09-22.09h9.47
			C68.55,54.49,78.46,64.39,78.46,76.58z"/>
		<path style="fill:#3498DB;" d="M205.94,76.58v13.34H152.3V76.58c0-12.19,9.91-22.09,22.09-22.09h9.46
			C196.04,54.49,205.94,64.39,205.94,76.58z"/>
		<rect x="24.81" y="109.12" style="fill:#B8C9F1;" width="53.65" height="108.29"/>
		<rect x="152.3" y="109.12" style="fill:#B8C9F1;" width="53.64" height="108.29"/>
		<path d="M277.81,184.14c11.32,4.05,19.44,14.88,19.44,27.58c0,16.15-13.14,29.29-29.29,29.29s-29.29-13.14-29.29-29.29
			c0-12.88,8.36-23.83,19.93-27.75V57.08c0-17.43-14.19-31.62-31.63-31.62h-38.24v10.12c20.48,2.41,36.42,19.87,36.42,41v173.37
			c0,22.77-18.52,41.3-41.3,41.3h-9.46c-22.77,0-41.3-18.53-41.3-41.3v-104.4H97.66v104.4c0,22.77-18.52,41.3-41.29,41.3H46.9
			c-22.77,0-41.3-18.53-41.3-41.3V76.58c0-21.13,15.95-38.59,36.43-41V25.46H9.86c-5.31,0-9.61-4.3-9.61-9.61
			c0-5.3,4.3-9.6,9.61-9.6h217.11c28.03,0,50.84,22.8,50.84,50.83V184.14z M278.05,211.72c0-5.56-4.53-10.08-10.09-10.08
			s-10.08,4.52-10.08,10.08s4.52,10.09,10.08,10.09S278.05,217.28,278.05,211.72z M205.94,249.95v-13.34H152.3v13.34
			c0,12.18,9.91,22.09,22.09,22.09h9.46C196.04,272.04,205.94,262.13,205.94,249.95z M205.94,217.41V109.12H152.3v108.29H205.94z
			 M205.94,89.92V76.58c0-12.19-9.9-22.09-22.09-22.09h-9.46c-12.18,0-22.09,9.9-22.09,22.09v13.34H205.94z M169.52,35.58V25.46
			H61.24v10.12c20.48,2.41,36.42,19.87,36.42,41v49.76h35.43V76.58C133.09,55.45,149.04,37.99,169.52,35.58z M78.46,249.95v-13.34
			H24.81v13.34c0,12.18,9.91,22.09,22.09,22.09h9.47C68.55,272.04,78.46,262.13,78.46,249.95z M78.46,217.41V109.12H24.81v108.29
			H78.46z M78.46,89.92V76.58c0-12.19-9.91-22.09-22.09-22.09H46.9c-12.18,0-22.09,9.9-22.09,22.09v13.34H78.46z"/>
	</g>
	<g>
	</g>
</g>
<g>
</g>
<g>
</g>
<g>
</g>
<g>
</g>
<g>
</g>
<g>
</g>
<g>
</g>
<g>
</g>
<g>
</g>
<g>
</g>
<g>
</g>
<g>
</g>
<g>
</g>
<g>
</g>
<g>
</g>
</svg>
