<?xml version="1.0" encoding="iso-8859-1"?>
<!-- Generator: Adobe Illustrator 18.0.0, SVG Export Plug-In . SVG Version: 6.00 Build 0)  -->
<!DOCTYPE svg PUBLIC "-//W3C//DTD SVG 1.1//EN" "http://www.w3.org/Graphics/SVG/1.1/DTD/svg11.dtd">
<svg version="1.1" id="Capa_1" xmlns="http://www.w3.org/2000/svg" xmlns:xlink="http://www.w3.org/1999/xlink" x="0px" y="0px"
	 viewBox="0 0 297.501 297.501" style="enable-background:new 0 0 297.501 297.501;" xml:space="preserve">
<g id="XMLID_50_">
	<g>
		<path style="fill:#D5C295;" d="M88.897,123.641l-26.43,35.25c-12.06-3.75-22.35-8.48-30.12-12.63L88.897,123.641z"/>
		<path style="fill:#D5C295;" d="M199.327,103.551h-66.44c-0.21-0.01-0.42-0.04-0.64-0.04h-23.25c-0.24,0-0.49,0.02-0.73,0.04h-10.1
			c4.67-23.66,25.57-41.56,50.58-41.56S194.667,79.891,199.327,103.551z"/>
		<path style="fill:#D5C295;" d="M207.537,123.551l38.1,22.86c-29.78,1.41-64.61,7.74-92.84,12.87c-11.23,2.04-20.93,3.8-28.86,5
			c-3.81,0.58-7.58,0.96-11.3,1.17l25.24-41.9H207.537z"/>
		<path style="fill:#D95459;" d="M114.527,123.551l-30.59,50.8c-0.94,1.55-1.44,3.34-1.44,5.16v56h-13v-52.67l44.47-59.29H114.527z"
			/>
		<path d="M292.397,151.141c4.35,2.61,6.06,8.08,3.96,12.71c-2.1,4.62-7.34,6.94-12.17,5.38c-26.82-8.63-87.6,2.42-127.82,9.73
			c-11.38,2.07-21.21,3.85-29.44,5.1c-7.52,1.14-14.87,1.64-21.99,1.64c-0.82,0-1.63-0.01-2.44-0.02v59.83c0,5.52-4.48,10-10,10h-33
			c-5.52,0-10-4.48-10-10v-66c0-1.2,0.23-2.38,0.64-3.5c-27.15-9.52-44.72-22.78-45.98-23.75c-2.85-2.19-4.31-5.74-3.81-9.3
			c0.49-3.56,2.85-6.58,6.19-7.92l71-28.4c3.48-36.22,34.09-64.65,71.21-64.65c37.5,0,68.33,29,71.3,65.74L292.397,151.141z
			 M245.637,146.411l-38.1-22.86h-69.66l-25.24,41.9c3.72-0.21,7.49-0.59,11.3-1.17c7.93-1.2,17.63-2.96,28.86-5
			C181.027,154.151,215.857,147.821,245.637,146.411z M132.887,103.551h66.44c-4.66-23.66-25.57-41.56-50.58-41.56
			s-45.91,17.9-50.58,41.56h10.1c0.24-0.02,0.49-0.04,0.73-0.04h23.25C132.467,103.511,132.677,103.541,132.887,103.551z
			 M83.937,174.351l30.59-50.8h-0.56l-44.47,59.29v52.67h13v-56C82.497,177.691,82.997,175.901,83.937,174.351z M62.467,158.891
			l26.43-35.25l-56.55,22.62C40.117,150.411,50.407,155.141,62.467,158.891z"/>
	</g>
	<g>
	</g>
</g>
<g>
</g>
<g>
</g>
<g>
</g>
<g>
</g>
<g>
</g>
<g>
</g>
<g>
</g>
<g>
</g>
<g>
</g>
<g>
</g>
<g>
</g>
<g>
</g>
<g>
</g>
<g>
</g>
<g>
</g>
</svg>
