<?xml version="1.0" encoding="iso-8859-1"?>
<!-- Generator: Adobe Illustrator 18.0.0, SVG Export Plug-In . SVG Version: 6.00 Build 0)  -->
<!DOCTYPE svg PUBLIC "-//W3C//DTD SVG 1.1//EN" "http://www.w3.org/Graphics/SVG/1.1/DTD/svg11.dtd">
<svg version="1.1" id="Capa_1" xmlns="http://www.w3.org/2000/svg" xmlns:xlink="http://www.w3.org/1999/xlink" x="0px" y="0px"
	 viewBox="0 0 297.498 297.498" style="enable-background:new 0 0 297.498 297.498;" xml:space="preserve">
<g>
	<g id="XMLID_42_">
		<g>
			<path style="fill:#D5C295;" d="M179.364,208.268h6.87c-3.22,3.24-6.86,6.06-10.8,8.41
				C176.874,214.078,178.184,211.268,179.364,208.268z"/>
			<path style="fill:#D5C295;" d="M185.914,176.268h15.79c-0.8,6.94-2.92,13.5-6.1,19.39h-12.35
				C184.654,189.618,185.564,183.108,185.914,176.268z"/>
			<path style="fill:#D5C295;" d="M154.084,176.268h19.21c-0.4,7.08-1.48,13.59-3.04,19.39h-16.17V176.268z"/>
			<path style="fill:#D5C295;" d="M154.084,208.268h11.52c-3.31,6.72-7.34,11.59-11.52,14.08V208.268z"/>
			<path style="fill:#D5C295;" d="M141.474,208.268v14.08c-4.18-2.49-8.22-7.36-11.52-14.08H141.474z"/>
			<path style="fill:#D5C295;" d="M116.184,208.268c1.18,3,2.5,5.81,3.94,8.41c-3.95-2.35-7.58-5.17-10.8-8.41H116.184z"/>
			<path d="M246.454,47.528v240.02c0,5.36-4.34,9.7-9.7,9.7H60.734c-5.35,0-9.69-4.34-9.69-9.7c0,0,0-183.85,0-243.7
				c0-5.35,2.54-10.36,7.79-11.41l160.02-32c2.85-0.57,5.8,0.17,8.05,2.01s3.55,4.59,3.55,7.5v27.88h6.3
				C242.114,37.828,246.454,42.168,246.454,47.528z M227.054,277.848V57.228H70.434v220.62H227.054z M211.054,37.828v-16.05
				l-80.26,16.05H211.054z"/>
			<path style="fill:#C0392B;" d="M227.054,57.228v220.62H70.434V57.228H227.054z M214.694,169.968c0-36.9-30.02-66.92-66.92-66.92
				c-36.89,0-66.91,30.02-66.91,66.92c0,36.89,30.02,66.91,66.91,66.91C184.674,236.878,214.694,206.858,214.694,169.968z"/>
			<polygon style="fill:#D5C295;" points="211.054,21.778 211.054,37.828 130.794,37.828 			"/>
			<path style="fill:#D5C295;" d="M201.704,163.658h-15.79c-0.35-6.84-1.26-13.35-2.66-19.39h12.35
				C198.784,150.158,200.904,156.718,201.704,163.658z"/>
			<path d="M147.774,103.048c36.9,0,66.92,30.02,66.92,66.92c0,36.89-30.02,66.91-66.92,66.91c-36.89,0-66.91-30.02-66.91-66.91
				C80.864,133.068,110.884,103.048,147.774,103.048z M185.914,163.658h15.79c-0.8-6.94-2.92-13.5-6.1-19.39h-12.35
				C184.654,150.308,185.564,156.818,185.914,163.658z M201.704,176.268h-15.79c-0.35,6.84-1.26,13.35-2.66,19.39h12.35
				C198.784,189.768,200.904,183.208,201.704,176.268z M179.364,131.658h6.87c-3.22-3.24-6.86-6.06-10.8-8.41
				C176.874,125.848,178.184,128.658,179.364,131.658z M186.234,208.268h-6.87c-1.18,3-2.49,5.81-3.93,8.41
				C179.374,214.328,183.014,211.508,186.234,208.268z M154.084,163.658h19.21c-0.4-7.08-1.48-13.59-3.04-19.39h-16.17V163.658z
				 M173.294,176.268h-19.21v19.39h16.17C171.814,189.858,172.894,183.348,173.294,176.268z M154.084,131.658h11.52
				c-3.31-6.72-7.34-11.59-11.52-14.08V131.658z M165.604,208.268h-11.52v14.08C158.264,219.858,162.294,214.988,165.604,208.268z
				 M141.474,222.348v-14.08h-11.52C133.254,214.988,137.294,219.858,141.474,222.348z M141.474,195.658v-19.39h-19.21
				c0.4,7.08,1.48,13.59,3.04,19.39H141.474z M141.474,163.658v-19.39h-16.17c-1.56,5.8-2.64,12.31-3.04,19.39H141.474z
				 M141.474,131.658v-14.08c-4.18,2.49-8.22,7.36-11.52,14.08H141.474z M116.184,131.658c1.18-3,2.5-5.81,3.94-8.41
				c-3.95,2.35-7.58,5.17-10.8,8.41H116.184z M120.124,216.678c-1.44-2.6-2.76-5.41-3.94-8.41h-6.86
				C112.544,211.508,116.174,214.328,120.124,216.678z M112.304,144.268h-12.36c-3.18,5.89-5.29,12.45-6.1,19.39h15.79
				C109.984,156.818,110.904,150.308,112.304,144.268z M99.944,195.658h12.36c-1.4-6.04-2.32-12.55-2.67-19.39h-15.79
				C94.654,183.208,96.764,189.768,99.944,195.658z"/>
			<path style="fill:#D5C295;" d="M186.234,131.658h-6.87c-1.18-3-2.49-5.81-3.93-8.41
				C179.374,125.598,183.014,128.418,186.234,131.658z"/>
			<path style="fill:#D5C295;" d="M173.294,163.658h-19.21v-19.39h16.17C171.814,150.068,172.894,156.578,173.294,163.658z"/>
			<path style="fill:#D5C295;" d="M165.604,131.658h-11.52v-14.08C158.264,120.068,162.294,124.938,165.604,131.658z"/>
			<path style="fill:#D5C295;" d="M141.474,176.268v19.39h-16.17c-1.56-5.8-2.64-12.31-3.04-19.39H141.474z"/>
			<path style="fill:#D5C295;" d="M141.474,144.268v19.39h-19.21c0.4-7.08,1.48-13.59,3.04-19.39H141.474z"/>
			<path style="fill:#D5C295;" d="M141.474,117.578v14.08h-11.52C133.254,124.938,137.294,120.068,141.474,117.578z"/>
			<path style="fill:#D5C295;" d="M120.124,123.248c-1.44,2.6-2.76,5.41-3.94,8.41h-6.86
				C112.544,128.418,116.174,125.598,120.124,123.248z"/>
			<path style="fill:#D5C295;" d="M99.944,144.268h12.36c-1.4,6.04-2.32,12.55-2.67,19.39h-15.79
				C94.654,156.718,96.764,150.158,99.944,144.268z"/>
			<path style="fill:#D5C295;" d="M112.304,195.658h-12.36c-3.18-5.89-5.29-12.45-6.1-19.39h15.79
				C109.984,183.108,110.904,189.618,112.304,195.658z"/>
		</g>
		<g>
		</g>
	</g>
</g>
<g>
</g>
<g>
</g>
<g>
</g>
<g>
</g>
<g>
</g>
<g>
</g>
<g>
</g>
<g>
</g>
<g>
</g>
<g>
</g>
<g>
</g>
<g>
</g>
<g>
</g>
<g>
</g>
<g>
</g>
</svg>
