<?xml version="1.0" encoding="iso-8859-1"?>
<!-- Generator: Adobe Illustrator 18.0.0, SVG Export Plug-In . SVG Version: 6.00 Build 0)  -->
<!DOCTYPE svg PUBLIC "-//W3C//DTD SVG 1.1//EN" "http://www.w3.org/Graphics/SVG/1.1/DTD/svg11.dtd">
<svg version="1.1" id="Capa_1" xmlns="http://www.w3.org/2000/svg" xmlns:xlink="http://www.w3.org/1999/xlink" x="0px" y="0px"
	 viewBox="0 0 297.5 297.5" style="enable-background:new 0 0 297.5 297.5;" xml:space="preserve">
<g>
	<g id="XMLID_41_">
		<g>
			<path d="M297.25,88.55v164.17c0,5.5-4.45,9.95-9.95,9.95H41.05c-5.5,0-9.95-4.45-9.95-9.95V218.9H10.2
				c-5.49,0-9.95-4.46-9.95-9.95V44.78c0-5.5,4.46-9.95,9.95-9.95h246.26c5.49,0,9.95,4.45,9.95,9.95V78.6h20.89
				C292.8,78.6,297.25,83.06,297.25,88.55z M277.35,242.78V98.5h-10.94v110.45c0,5.49-4.46,9.95-9.95,9.95H51v23.88H277.35z
				 M246.51,199v-14.7c-27.37-5-123.2-19.49-226.36,0V199H246.51z M246.51,143.6V54.72H20.15v80.95l35.25-35.25
				c11.29-11.28,29.65-11.28,40.94,0l5.69,5.7c9.64-11.67,24.09-18.63,39.51-18.63c21.27,0,40.12,13.25,47.7,32.52
				c5.38-0.54,10.88,0.39,15.86,2.88L246.51,143.6z M241.09,163.13l-44.89-22.44c-2.9-1.45-6.37-1.23-9.06,0.56l-21.11,14.07
				c5.68,0.28,11.08,0.61,16.15,0.98C207.46,158.13,227.76,160.94,241.09,163.13z M142.81,146.89l28.21-18.81
				c-4.41-12.22-16.17-20.69-29.48-20.69c-10.08,0-19.47,4.87-25.33,12.9L142.81,146.89z M122.31,154.54l-40.04-40.05
				c-3.53-3.52-9.27-3.52-12.8,0l-49.32,49.33v0.24C56.45,157.47,91.51,154.94,122.31,154.54z"/>
			<path style="fill:#FFA800;" d="M277.35,98.5v144.28H51V218.9h205.46c5.49,0,9.95-4.46,9.95-9.95V98.5H277.35z"/>
			<path style="fill:#1ABC9C;" d="M246.51,184.3V199H20.15v-14.7C123.31,164.81,219.14,179.3,246.51,184.3z"/>
			<path style="fill:#BDC3C7;" d="M246.51,54.72v88.88l-41.41-20.71c-4.98-2.49-10.48-3.42-15.86-2.88
				c-7.58-19.27-26.43-32.52-47.7-32.52c-15.42,0-29.87,6.96-39.51,18.63l-5.69-5.7c-11.29-11.28-29.65-11.28-40.94,0l-35.25,35.25
				V54.72H246.51z M195.72,86.76c2.72-2.72,2.72-7.13,0-9.85c-2.72-2.72-7.13-2.72-9.85,0l-6.34,6.33c-2.72,2.72-2.72,7.13,0,9.85
				c1.36,1.36,3.15,2.04,4.93,2.04c1.78,0,3.56-0.68,4.92-2.04L195.72,86.76z M157.46,77.29v-8.96c0-3.84-3.12-6.96-6.97-6.96
				c-3.84,0-6.96,3.12-6.96,6.96v8.96c0,3.85,3.12,6.96,6.96,6.96C154.34,84.25,157.46,81.14,157.46,77.29z M119.96,85.95
				c2.72-2.73,2.72-7.13,0-9.86l-6.33-6.33c-2.72-2.72-7.13-2.72-9.85,0s-2.72,7.13,0,9.85l6.33,6.34c1.36,1.35,3.15,2.03,4.93,2.03
				S118.6,87.3,119.96,85.95z"/>
			<path style="fill:#D5C295;" d="M196.2,140.69l44.89,22.44c-13.33-2.19-33.63-5-58.91-6.83c-5.07-0.37-10.47-0.7-16.15-0.98
				l21.11-14.07C189.83,139.46,193.3,139.24,196.2,140.69z"/>
			<path d="M195.72,76.91c2.72,2.72,2.72,7.13,0,9.85l-6.34,6.33c-1.36,1.36-3.14,2.04-4.92,2.04c-1.78,0-3.57-0.68-4.93-2.04
				c-2.72-2.72-2.72-7.13,0-9.85l6.34-6.33C188.59,74.19,193,74.19,195.72,76.91z"/>
			<path style="fill:#FFCD02;" d="M171.02,128.08l-28.21,18.81l-26.6-26.6c5.86-8.03,15.25-12.9,25.33-12.9
				C154.85,107.39,166.61,115.86,171.02,128.08z"/>
			<path d="M157.46,68.33v8.96c0,3.85-3.12,6.96-6.97,6.96c-3.84,0-6.96-3.11-6.96-6.96v-8.96c0-3.84,3.12-6.96,6.96-6.96
				C154.34,61.37,157.46,64.49,157.46,68.33z"/>
			<path style="fill:#D5C295;" d="M82.27,114.49l40.04,40.05c-30.8,0.4-65.86,2.93-102.16,9.52v-0.24l49.32-49.33
				C73,110.97,78.74,110.97,82.27,114.49z"/>
			<path d="M119.96,76.09c2.72,2.73,2.72,7.13,0,9.86c-1.36,1.35-3.14,2.03-4.92,2.03s-3.57-0.68-4.93-2.03l-6.33-6.34
				c-2.72-2.72-2.72-7.13,0-9.85s7.13-2.72,9.85,0L119.96,76.09z"/>
		</g>
		<g>
		</g>
	</g>
</g>
<g>
</g>
<g>
</g>
<g>
</g>
<g>
</g>
<g>
</g>
<g>
</g>
<g>
</g>
<g>
</g>
<g>
</g>
<g>
</g>
<g>
</g>
<g>
</g>
<g>
</g>
<g>
</g>
<g>
</g>
</svg>
