<?xml version="1.0" encoding="iso-8859-1"?>
<!-- Generator: Adobe Illustrator 18.0.0, SVG Export Plug-In . SVG Version: 6.00 Build 0)  -->
<!DOCTYPE svg PUBLIC "-//W3C//DTD SVG 1.1//EN" "http://www.w3.org/Graphics/SVG/1.1/DTD/svg11.dtd">
<svg version="1.1" id="Capa_1" xmlns="http://www.w3.org/2000/svg" xmlns:xlink="http://www.w3.org/1999/xlink" x="0px" y="0px"
	 viewBox="0 0 297.5 297.5" style="enable-background:new 0 0 297.5 297.5;" xml:space="preserve">
<g>
	<g id="XMLID_26_">
		<g>
			<path style="fill:#99ABD5;" d="M264.03,193.21v55.53c0,2.19-1.78,3.97-3.96,3.97c-2.19,0-3.97-1.78-3.97-3.97v-55.53
				c0-2.19,1.78-3.97,3.97-3.97C262.25,189.24,264.03,191.02,264.03,193.21z"/>
			<path style="fill:#BDC3C7;" d="M277.42,78.51c0,12.72-5.84,19.17-17.35,19.17c-11.52,0-17.36-6.45-17.36-19.17
				c0-16.73,10.1-33.72,17.36-33.72C267.32,44.79,277.42,61.78,277.42,78.51z"/>
			<path style="fill:#D95459;" d="M116.28,97.23c32.14,0,58.29,26.15,58.29,58.3c0,32.14-26.15,58.29-58.29,58.29
				c-32.15,0-58.3-26.15-58.3-58.29C57.98,123.38,84.13,97.23,116.28,97.23z"/>
			<path style="fill:#D35400;" d="M116.28,59.34c53.04,0,96.19,43.15,96.19,96.19s-43.15,96.19-96.19,96.19
				s-96.19-43.15-96.19-96.19S63.24,59.34,116.28,59.34z M194.4,155.53c0-43.08-35.04-78.13-78.12-78.13s-78.13,35.05-78.13,78.13
				s35.05,78.12,78.13,78.12S194.4,198.61,194.4,155.53z"/>
			<path d="M287.9,44.14c5.94,10.11,9.35,22.64,9.35,34.37c0,20.01-10.41,34.05-27.27,37.92v55.15
				c8.19,3.77,13.89,12.04,13.89,21.63v55.53c0,13.12-10.68,23.8-23.8,23.8c-13.13,0-23.8-10.68-23.8-23.8v-55.53
				c0-9.59,5.7-17.86,13.88-21.63v-55.15c-16.85-3.87-27.27-17.91-27.27-37.92c0-11.73,3.41-24.26,9.35-34.37
				c7.27-12.37,17.16-19.18,27.84-19.18C270.75,24.96,280.63,31.77,287.9,44.14z M260.07,97.68c11.51,0,17.35-6.45,17.35-19.17
				c0-16.73-10.1-33.72-17.35-33.72c-7.26,0-17.36,16.99-17.36,33.72C242.71,91.23,248.55,97.68,260.07,97.68z M264.03,248.74
				v-55.53c0-2.19-1.78-3.97-3.96-3.97c-2.19,0-3.97,1.78-3.97,3.97v55.53c0,2.19,1.78,3.97,3.97,3.97
				C262.25,252.71,264.03,250.93,264.03,248.74z"/>
			<path d="M116.28,39.5c63.97,0,116.02,52.05,116.02,116.03c0,63.97-52.05,116.02-116.02,116.02
				C52.3,271.55,0.25,219.5,0.25,155.53C0.25,91.55,52.3,39.5,116.28,39.5z M212.47,155.53c0-53.04-43.15-96.19-96.19-96.19
				s-96.19,43.15-96.19,96.19s43.15,96.19,96.19,96.19S212.47,208.57,212.47,155.53z"/>
			<path d="M116.28,77.4c43.08,0,78.12,35.05,78.12,78.13s-35.04,78.12-78.12,78.12s-78.13-35.04-78.13-78.12S73.2,77.4,116.28,77.4
				z M174.57,155.53c0-32.15-26.15-58.3-58.29-58.3c-32.15,0-58.3,26.15-58.3,58.3c0,32.14,26.15,58.29,58.3,58.29
				C148.42,213.82,174.57,187.67,174.57,155.53z"/>
		</g>
		<g>
		</g>
	</g>
</g>
<g>
</g>
<g>
</g>
<g>
</g>
<g>
</g>
<g>
</g>
<g>
</g>
<g>
</g>
<g>
</g>
<g>
</g>
<g>
</g>
<g>
</g>
<g>
</g>
<g>
</g>
<g>
</g>
<g>
</g>
</svg>
