<?xml version="1.0" encoding="iso-8859-1"?>
<!-- Generator: Adobe Illustrator 18.0.0, SVG Export Plug-In . SVG Version: 6.00 Build 0)  -->
<!DOCTYPE svg PUBLIC "-//W3C//DTD SVG 1.1//EN" "http://www.w3.org/Graphics/SVG/1.1/DTD/svg11.dtd">
<svg version="1.1" id="Capa_1" xmlns="http://www.w3.org/2000/svg" xmlns:xlink="http://www.w3.org/1999/xlink" x="0px" y="0px"
	 viewBox="0 0 297.5 297.5" style="enable-background:new 0 0 297.5 297.5;" xml:space="preserve">
<g id="XMLID_47_">
	<g>
		<rect x="38.42" y="78.85" style="fill:#FFCD02;" width="30.85" height="30.85"/>
		<path style="fill:#D95459;" d="M215.4,168.97v32.45l-64.49,64.5c-2.9,2.9-6.76,4.5-10.86,4.5c-4.1,0-7.96-1.6-10.86-4.5
			l-27.85-27.85c-2.9-2.9-4.5-6.76-4.5-10.86c0-4.1,1.6-7.96,4.5-10.86l64.5-64.49h37.52c-2.47,1.85-5.11,3.69-7.94,5.49
			c-4.87,3.1-6.3,9.57-3.2,14.44c1.99,3.13,5.38,4.84,8.83,4.84c1.92,0,3.87-0.53,5.61-1.64
			C209.75,173.02,212.66,171.01,215.4,168.97z"/>
		<path d="M252.28,6.17c25.22,0,44.97,27.33,44.97,62.22s-19.75,62.23-44.97,62.23c-1.04,0-2.07-0.07-3.09-0.16
			c-3.2,6.07-7.4,12.51-12.87,19v56.3c0,2.77-1.1,5.43-3.06,7.39l-67.56,67.56c-6.85,6.85-15.96,10.62-25.65,10.62
			s-18.8-3.77-25.65-10.62l-27.85-27.85c-6.85-6.85-10.62-15.96-10.62-25.65c0-9.69,3.77-18.8,10.62-25.65L154.11,134
			c1.96-1.96,4.62-3.06,7.39-3.06h62.81c2.12-2.89,3.91-5.72,5.45-8.45c-11.45-9-19.61-24.76-21.83-43.64H90.19v41.31
			c0,5.77-4.68,10.46-10.46,10.46H27.97c-5.78,0-10.46-4.69-10.46-10.46V78.85h-6.8c-5.77,0-10.46-4.68-10.46-10.46
			c0-5.77,4.69-10.46,10.46-10.46h197.22C211.43,28.19,229.65,6.17,252.28,6.17z M257.54,108.6c10.48-4.36,18.8-21.28,18.8-40.21
			c0-22-11.24-41.31-24.06-41.31c-12.81,0-24.05,19.31-24.05,41.31c0,12.89,3.86,24.85,9.63,32.55c0.78-4.01,0.83-6.55,0.83-6.92
			c-0.05-5.77,4.59-10.46,10.37-10.5c0.03,0,0.06,0,0.09,0c5.73,0,10.41,4.66,10.46,10.41C259.61,94.57,259.59,100.18,257.54,108.6z
			 M215.4,201.42v-32.45c-2.74,2.04-5.65,4.05-8.74,6.02c-1.74,1.11-3.69,1.64-5.61,1.64c-3.45,0-6.84-1.71-8.83-4.84
			c-3.1-4.87-1.67-11.34,3.2-14.44c2.83-1.8,5.47-3.64,7.94-5.49h-37.52l-64.5,64.49c-2.9,2.9-4.5,6.76-4.5,10.86
			c0,4.1,1.6,7.96,4.5,10.86l27.85,27.85c2.9,2.9,6.76,4.5,10.86,4.5c4.1,0,7.96-1.6,10.86-4.5L215.4,201.42z M69.27,109.7V78.85
			H38.42v30.85H69.27z"/>
	</g>
	<g>
	</g>
</g>
<g>
</g>
<g>
</g>
<g>
</g>
<g>
</g>
<g>
</g>
<g>
</g>
<g>
</g>
<g>
</g>
<g>
</g>
<g>
</g>
<g>
</g>
<g>
</g>
<g>
</g>
<g>
</g>
<g>
</g>
</svg>
