<?xml version="1.0" encoding="iso-8859-1"?>
<!-- Generator: Adobe Illustrator 18.0.0, SVG Export Plug-In . SVG Version: 6.00 Build 0)  -->
<!DOCTYPE svg PUBLIC "-//W3C//DTD SVG 1.1//EN" "http://www.w3.org/Graphics/SVG/1.1/DTD/svg11.dtd">
<svg version="1.1" id="Capa_1" xmlns="http://www.w3.org/2000/svg" xmlns:xlink="http://www.w3.org/1999/xlink" x="0px" y="0px"
	 viewBox="0 0 297.5 297.5" style="enable-background:new 0 0 297.5 297.5;" xml:space="preserve">
<g id="XMLID_48_">
	<g>
		<path style="fill:#8E725E;" d="M168.615,25.009v60.59H27.565v-60.59h12.32v6.16c0,5.48,4.44,9.93,9.93,9.93h32.18
			c5.49,0,9.94-4.45,9.94-9.93v-6.16h12.31v6.16c0,5.48,4.45,9.93,9.94,9.93h32.18c5.48,0,9.93-4.45,9.93-9.93v-6.16H168.615z"/>
		<path style="fill:#8E725E;" d="M145.045,105.459l9.35,97.32l-16.76,55.19c-45.55,3.82-79.57,7.79-101.23,10.64l14.76-163.15
			H145.045z"/>
		<path style="fill:#FFCD02;" d="M231.865,116.039c1.62,0.5,2.53,2.21,2.04,3.83l-16,52.69l-5.86-1.78l16-52.69
			C228.535,116.469,230.255,115.549,231.865,116.039z"/>
		<path style="fill:#FFCD02;" d="M232.165,201.709c1.67,3.12,2.02,6.7,0.99,10.08l-13.78,45.39c-17.17-1.55-37.36-2.12-60.5-0.8
			l18.67-61.48c1.03-3.38,3.31-6.16,6.43-7.83c3.13-1.67,6.71-2.02,10.09-0.99l30.27,9.19
			C227.715,196.299,230.495,198.589,232.165,201.709z"/>
		<path d="M291.605,273.459c4.94,2.37,7.04,8.3,4.67,13.25c-1.71,3.57-5.26,5.65-8.97,5.65c-1.43,0-2.88-0.31-4.25-0.96
			c-0.46-0.22-46.66-21.43-133.51-14.47c-89.53,7.18-137.22,15.21-137.69,15.29c-5.41,0.92-10.54-2.72-11.46-8.13
			c-0.93-5.41,2.71-10.54,8.12-11.46c0.11-0.02,2.7-0.45,7.69-1.2l15.01-165.97h-13.58c-5.49,0-9.94-4.44-9.94-9.93v-80.46
			c0-5.48,4.45-9.93,9.94-9.93h32.18c5.49,0,9.93,4.45,9.93,9.93v6.16h12.32v-6.16c0-5.48,4.45-9.93,9.93-9.93h32.19
			c5.48,0,9.93,4.45,9.93,9.93v6.16h12.32v-6.16c0-5.48,4.44-9.93,9.93-9.93h32.18c5.49,0,9.93,4.45,9.93,9.93v80.46
			c0,5.49-4.44,9.93-9.93,9.93h-13.54l6.35,66.09c1.04-0.72,2.13-1.4,3.27-2c5.66-3.03,11.93-4.31,18.18-3.81l16.23-53.43
			c3.67-12.09,16.5-18.95,28.6-15.27c12.1,3.67,18.96,16.5,15.28,28.6l-16.22,53.43c5.47,3.06,9.97,7.61,12.99,13.28
			c4.17,7.8,5.05,16.75,2.48,25.22l-12.76,42.03C272.785,264.669,290.395,272.889,291.605,273.459z M233.905,119.869
			c0.49-1.62-0.42-3.33-2.04-3.83c-1.61-0.49-3.33,0.43-3.82,2.05l-16,52.69l5.86,1.78L233.905,119.869z M233.155,211.789
			c1.03-3.38,0.68-6.96-0.99-10.08c-1.67-3.12-4.45-5.41-7.83-6.44l-30.27-9.19c-3.38-1.03-6.96-0.68-10.09,0.99
			c-3.12,1.67-5.4,4.45-6.43,7.83l-18.67,61.48c23.14-1.32,43.33-0.75,60.5,0.8L233.155,211.789z M168.615,85.599v-60.59h-12.32
			v6.16c0,5.48-4.45,9.93-9.93,9.93h-32.18c-5.49,0-9.94-4.45-9.94-9.93v-6.16h-12.31v6.16c0,5.48-4.45,9.93-9.94,9.93h-32.18
			c-5.49,0-9.93-4.45-9.93-9.93v-6.16h-12.32v60.59H168.615z M154.395,202.779l-9.35-97.32h-93.88l-14.76,163.15
			c21.66-2.85,55.68-6.82,101.23-10.64L154.395,202.779z"/>
	</g>
	<g>
	</g>
</g>
<g>
</g>
<g>
</g>
<g>
</g>
<g>
</g>
<g>
</g>
<g>
</g>
<g>
</g>
<g>
</g>
<g>
</g>
<g>
</g>
<g>
</g>
<g>
</g>
<g>
</g>
<g>
</g>
<g>
</g>
</svg>
