<?xml version="1.0" encoding="iso-8859-1"?>
<!-- Generator: Adobe Illustrator 18.0.0, SVG Export Plug-In . SVG Version: 6.00 Build 0)  -->
<!DOCTYPE svg PUBLIC "-//W3C//DTD SVG 1.1//EN" "http://www.w3.org/Graphics/SVG/1.1/DTD/svg11.dtd">
<svg version="1.1" id="Capa_1" xmlns="http://www.w3.org/2000/svg" xmlns:xlink="http://www.w3.org/1999/xlink" x="0px" y="0px"
	 viewBox="0 0 297.501 297.501" style="enable-background:new 0 0 297.501 297.501;" xml:space="preserve">
<g>
	<g id="XMLID_38_">
		<g>
			<path style="fill:#FFCD02;" d="M125.709,230.21c0.74,5.34-2.1,11.29-7.79,16.3c-9.02,7.96-22.4,11.34-33.3,8.4
				c-3.62-0.97-17.39-14.31-37.36-63.68c-5.31-13.13-10.33-27.09-14.58-40.24c4.53-20.95,19.02-38.56,26.3-46.36
				c10.58,4.59,22.71,11.39,30.63,18.37c0.04,5.31,0.14,10.91,0.31,16.88c0.59,20.36,11.92,41.04,21.92,59.28
				C118.429,211.19,124.649,222.54,125.709,230.21z"/>
			<path style="fill:#FFCD02;" d="M89.919,68.36c0.11,6.81,0,14.24-0.12,22.84c-0.04,2.35-0.07,4.75-0.11,7.21
				c-0.9-0.57-1.81-1.15-2.76-1.72c-8.16-4.9-16.18-8.64-21.3-10.85l-2.7-18.3c-0.8-5.45-5.87-9.21-11.31-8.41
				c-5.45,0.8-9.21,5.87-8.41,11.32l2.78,18.88c-5.23,5.37-14.64,16-22.33,30.01c-1.55-6.52-2.63-12.16-3.12-16.54
				c-3.25-29.3,15.9-54.75,45.55-60.52c2.52-0.49,4.83-0.73,6.92-0.73c4.1,0,7.35,0.95,9.69,2.84
				C87.289,48.11,89.719,56.18,89.919,68.36z"/>
			<path style="fill:#FFCD02;" d="M238.549,104.63c7.3,7.77,21.78,25.32,26.3,46.28c-4.25,13.18-9.28,27.17-14.6,40.32
				c-19.98,49.37-33.75,62.71-37.37,63.68c-10.89,2.94-24.28-0.44-33.3-8.4c-5.68-5.01-8.52-10.96-7.78-16.31
				c1.06-7.66,7.28-19.01,13.87-31.04c10-18.24,21.33-38.92,21.92-59.28c0.17-5.96,0.26-11.56,0.31-16.86
				C215.829,116.05,227.969,109.23,238.549,104.63z"/>
			<path style="fill:#FFCD02;" d="M231.419,42.28c29.64,5.77,48.8,31.22,45.54,60.52c-0.49,4.38-1.56,10.02-3.11,16.54
				c-7.7-14.01-17.1-24.64-22.34-30.01l2.79-18.88c0.8-5.45-2.97-10.52-8.41-11.32c-5.44-0.79-10.51,2.96-11.32,8.41l-2.69,18.3
				c-5.12,2.21-13.14,5.95-21.3,10.85c-0.95,0.57-1.86,1.15-2.77,1.72c-0.03-2.46-0.06-4.86-0.1-7.21
				c-0.13-8.6-0.23-16.03-0.12-22.84c0.2-12.18,2.63-20.25,7.22-23.97c2.34-1.89,5.58-2.84,9.69-2.84
				C226.579,41.55,228.889,41.79,231.419,42.28z"/>
			<path d="M281.979,51.15c11.71,15.17,16.97,34.29,14.79,53.85c-1.21,10.91-5.45,28.09-11.42,47.22
				c1.36,9.31,1.15,19.19-1.49,29.38c-1.16,4.49-5.21,7.47-9.64,7.47c-0.54,0-1.09-0.06-1.64-0.15c-1.26,3.29-2.55,6.56-3.86,9.79
				c-28.06,69.38-45.07,73.95-50.66,75.45c-4.32,1.17-8.82,1.73-13.36,1.73c-13.7,0-27.76-5.13-38.3-14.43
				c-10.79-9.51-16.02-21.9-14.35-33.98c1.56-11.3,8.64-24.22,16.14-37.9c7.87-14.37,16.67-30.44,18.93-44.71
				c-4.62-1.11-7.92-5.39-7.62-10.29c0.4-6.65,3.25-13.18,8.5-19.54c0-8.54-0.11-16.31-0.22-23.55c-0.13-8.76-0.24-16.34-0.12-23.45
				c0.11-6.85,0.45-27.67,14.6-39.13c8.32-6.75,19.41-8.83,32.96-6.19C254.039,26.38,270.639,36.48,281.979,51.15z M276.959,102.8
				c3.26-29.3-15.9-54.75-45.54-60.52c-2.53-0.49-4.84-0.73-6.92-0.73c-4.11,0-7.35,0.95-9.69,2.84
				c-4.59,3.72-7.02,11.79-7.22,23.97c-0.11,6.81-0.01,14.24,0.12,22.84c0.04,2.35,0.07,4.75,0.1,7.21
				c0.91-0.57,1.82-1.15,2.77-1.72c8.16-4.9,16.18-8.64,21.3-10.85l2.69-18.3c0.81-5.45,5.88-9.2,11.32-8.41
				c5.44,0.8,9.21,5.87,8.41,11.32l-2.79,18.88c5.24,5.37,14.64,16,22.34,30.01C275.399,112.82,276.469,107.18,276.959,102.8z
				 M264.849,150.91c-4.52-20.96-19-38.51-26.3-46.28c-10.58,4.6-22.72,11.42-30.65,18.39c-0.05,5.3-0.14,10.9-0.31,16.86
				c-0.59,20.36-11.92,41.04-21.92,59.28c-6.59,12.03-12.81,23.38-13.87,31.04c-0.74,5.35,2.1,11.3,7.78,16.31
				c9.02,7.96,22.41,11.34,33.3,8.4c3.62-0.97,17.39-14.31,37.37-63.68C255.569,178.08,260.599,164.09,264.849,150.91z"/>
			<path d="M145.459,227.48c1.67,12.08-3.56,24.47-14.35,33.98c-10.54,9.3-24.61,14.43-38.31,14.43c-4.54,0-9.04-0.56-13.35-1.73
				c-5.59-1.5-22.6-6.07-50.67-75.45c-1.3-3.23-2.59-6.5-3.85-9.79c-0.55,0.09-1.1,0.15-1.64,0.15c-4.44,0-8.48-2.98-9.65-7.47
				c-2.64-10.19-2.84-20.07-1.48-29.38c-5.97-19.13-10.21-36.31-11.43-47.22c-2.17-19.56,3.08-38.68,14.8-53.85
				c11.34-14.67,27.94-24.77,46.75-28.43c13.56-2.64,24.65-0.56,32.97,6.19c14.14,11.46,14.49,32.28,14.6,39.13
				c0.12,7.11,0.01,14.69-0.12,23.45c-0.11,7.24-0.22,15.01-0.22,23.55c5.24,6.36,8.09,12.89,8.5,19.54c0.3,4.9-3,9.18-7.62,10.29
				c2.25,14.27,11.05,30.34,18.93,44.71C136.809,203.26,143.889,216.18,145.459,227.48z M117.919,246.51
				c5.69-5.01,8.53-10.96,7.79-16.3c-1.06-7.67-7.28-19.02-13.87-31.05c-10-18.24-21.33-38.92-21.92-59.28
				c-0.17-5.97-0.27-11.57-0.31-16.88c-7.92-6.98-20.05-13.78-30.63-18.37c-7.28,7.8-21.77,25.41-26.3,46.36
				c4.25,13.15,9.27,27.11,14.58,40.24c19.97,49.37,33.74,62.71,37.36,63.68C95.519,257.85,108.899,254.47,117.919,246.51z
				 M89.799,91.2c0.12-8.6,0.23-16.03,0.12-22.84c-0.2-12.18-2.63-20.25-7.22-23.97c-2.34-1.89-5.59-2.84-9.69-2.84
				c-2.09,0-4.4,0.24-6.92,0.73c-29.65,5.77-48.8,31.22-45.55,60.52c0.49,4.38,1.57,10.02,3.12,16.54
				c7.69-14.01,17.1-24.64,22.33-30.01l-2.78-18.88c-0.8-5.45,2.96-10.52,8.41-11.32c5.44-0.8,10.51,2.96,11.31,8.41l2.7,18.3
				c5.12,2.21,13.14,5.95,21.3,10.85c0.95,0.57,1.86,1.15,2.76,1.72C89.729,95.95,89.759,93.55,89.799,91.2z"/>
		</g>
		<g>
		</g>
	</g>
</g>
<g>
</g>
<g>
</g>
<g>
</g>
<g>
</g>
<g>
</g>
<g>
</g>
<g>
</g>
<g>
</g>
<g>
</g>
<g>
</g>
<g>
</g>
<g>
</g>
<g>
</g>
<g>
</g>
<g>
</g>
</svg>
