<?xml version="1.0" encoding="iso-8859-1"?>
<!-- Generator: Adobe Illustrator 18.0.0, SVG Export Plug-In . SVG Version: 6.00 Build 0)  -->
<!DOCTYPE svg PUBLIC "-//W3C//DTD SVG 1.1//EN" "http://www.w3.org/Graphics/SVG/1.1/DTD/svg11.dtd">
<svg version="1.1" id="Capa_1" xmlns="http://www.w3.org/2000/svg" xmlns:xlink="http://www.w3.org/1999/xlink" x="0px" y="0px"
	 viewBox="0 0 297.5 297.5" style="enable-background:new 0 0 297.5 297.5;" xml:space="preserve">
<g>
	<g id="XMLID_29_">
		<g>
			<path style="fill:#5E4534;" d="M277.12,91.14v32.55c-17.5-1.99-31.58-15.38-34.62-32.55H277.12z"/>
			<path style="fill:#5E4534;" d="M277.12,224.3v32.55H242.5C245.54,239.69,259.62,226.3,277.12,224.3z"/>
			<path style="fill:#5E4534;" d="M55,256.85H20.39V224.3C37.89,226.3,51.96,239.69,55,256.85z"/>
			<path style="fill:#5E4534;" d="M20.39,91.14H55c-3.04,17.17-17.11,30.56-34.61,32.55V91.14z"/>
			<path style="fill:#A38671;" d="M277.12,143.9v60.19c-28.61,2.15-51.67,24.48-54.96,52.76H75.34
				c-3.28-28.28-26.34-50.61-54.95-52.76V143.9c28.61-2.15,51.67-24.47,54.95-52.76h146.82
				C225.45,119.43,248.51,141.75,277.12,143.9z M215.2,134.03c0-9.18-7.44-16.62-16.61-16.62c-9.18,0-16.61,7.44-16.61,16.62
				c0,9.17,7.43,16.61,16.61,16.61C207.76,150.64,215.2,143.2,215.2,134.03z M189.5,194.05l15.78-17.69l-23.11-20.59l-15.77,17.68
				L189.5,194.05z M123.89,135.43l-12.34-20.25l-37.08,22.59l12.33,20.25L123.89,135.43z M115.53,200.47
				c0-9.17-7.44-16.61-16.61-16.61c-9.18,0-16.61,7.44-16.61,16.61c0,9.18,7.43,16.62,16.61,16.62
				C108.09,217.09,115.53,209.65,115.53,200.47z"/>
			<path d="M297.25,81.08v185.84c0,5.56-4.5,10.07-10.06,10.07H10.32c-5.56,0-10.07-4.51-10.07-10.07V81.08
				c0-5.56,4.51-10.07,10.07-10.07h78.53V50c0-16.26,13.23-29.49,29.49-29.49h60.83c16.26,0,29.49,13.23,29.49,29.49v21.01h78.53
				C292.75,71.01,297.25,75.52,297.25,81.08z M277.12,256.85V224.3c-17.5,2-31.58,15.39-34.62,32.55H277.12z M277.12,204.09V143.9
				c-28.61-2.15-51.67-24.47-54.96-52.76H75.34C72.06,119.43,49,141.75,20.39,143.9v60.19c28.61,2.15,51.67,24.48,54.95,52.76
				h146.82C225.45,228.57,248.51,206.24,277.12,204.09z M277.12,123.69V91.14H242.5C245.54,108.31,259.62,121.7,277.12,123.69z
				 M188.52,71.01V50c0-5.16-4.2-9.35-9.35-9.35h-60.83c-5.16,0-9.35,4.19-9.35,9.35v21.01H188.52z M55,91.14H20.39v32.55
				C37.89,121.7,51.96,108.31,55,91.14z M20.39,256.85H55c-3.04-17.16-17.11-30.55-34.61-32.55V256.85z"/>
			<path d="M198.59,117.41c9.17,0,16.61,7.44,16.61,16.62c0,9.17-7.44,16.61-16.61,16.61c-9.18,0-16.61-7.44-16.61-16.61
				C181.98,124.85,189.41,117.41,198.59,117.41z"/>
			<polygon points="205.28,176.36 189.5,194.05 166.4,173.45 182.17,155.77 			"/>
			<polygon points="111.55,115.18 123.89,135.43 86.8,158.02 74.47,137.77 			"/>
			<path d="M98.92,183.86c9.17,0,16.61,7.44,16.61,16.61c0,9.18-7.44,16.62-16.61,16.62c-9.18,0-16.61-7.44-16.61-16.62
				C82.31,191.3,89.74,183.86,98.92,183.86z"/>
		</g>
		<g>
		</g>
	</g>
</g>
<g>
</g>
<g>
</g>
<g>
</g>
<g>
</g>
<g>
</g>
<g>
</g>
<g>
</g>
<g>
</g>
<g>
</g>
<g>
</g>
<g>
</g>
<g>
</g>
<g>
</g>
<g>
</g>
<g>
</g>
</svg>
