<?xml version="1.0" encoding="iso-8859-1"?>
<!-- Generator: Adobe Illustrator 18.0.0, SVG Export Plug-In . SVG Version: 6.00 Build 0)  -->
<!DOCTYPE svg PUBLIC "-//W3C//DTD SVG 1.1//EN" "http://www.w3.org/Graphics/SVG/1.1/DTD/svg11.dtd">
<svg version="1.1" id="Capa_1" xmlns="http://www.w3.org/2000/svg" xmlns:xlink="http://www.w3.org/1999/xlink" x="0px" y="0px"
	 viewBox="0 0 297.5 297.5" style="enable-background:new 0 0 297.5 297.5;" xml:space="preserve">
<g id="XMLID_39_">
	<g>
		<rect x="129.94" y="136.06" style="fill:#745EC5;" width="37.63" height="124.35"/>
		<path style="fill:#9B59B6;" d="M210.93,130.76v129.65h-23.18V125.97c0-5.57-4.52-10.09-10.09-10.09h-57.81
			c-5.58,0-10.1,4.52-10.1,10.09v134.44H86.58V130.76c0-14.42,11.73-26.16,26.15-26.16h72.04
			C199.19,104.6,210.93,116.34,210.93,130.76z"/>
		<path d="M231.11,130.76V270.5c0,5.58-4.52,10.1-10.09,10.1H208.8v6.56c0,5.57-4.51,10.09-10.09,10.09
			c-5.57,0-10.09-4.52-10.09-10.09v-6.56h-79.73v6.56c0,5.57-4.52,10.09-10.1,10.09c-5.57,0-10.09-4.52-10.09-10.09v-6.56H76.49
			c-5.58,0-10.1-4.52-10.1-10.1V130.76c0-23.32,17.31-42.65,39.75-45.87V20.44h-0.75c-5.57,0-10.09-4.52-10.09-10.1
			c0-5.57,4.52-10.09,10.09-10.09h86.72c5.58,0,10.1,4.52,10.1,10.09c0,5.58-4.52,10.1-10.1,10.1h-0.74v64.45
			C213.81,88.11,231.11,107.44,231.11,130.76z M210.93,260.41V130.76c0-14.42-11.74-26.16-26.16-26.16h-72.04
			c-14.42,0-26.15,11.74-26.15,26.16v129.65h23.17V125.97c0-5.57,4.52-10.09,10.1-10.09h57.81c5.57,0,10.09,4.52,10.09,10.09v134.44
			H210.93z M171.18,84.42V20.44h-44.85v63.98H171.18z M167.57,260.41V136.06h-37.63v124.35H167.57z"/>
	</g>
	<g>
	</g>
</g>
<g>
</g>
<g>
</g>
<g>
</g>
<g>
</g>
<g>
</g>
<g>
</g>
<g>
</g>
<g>
</g>
<g>
</g>
<g>
</g>
<g>
</g>
<g>
</g>
<g>
</g>
<g>
</g>
<g>
</g>
</svg>
