<?xml version="1.0" encoding="iso-8859-1"?>
<!-- Generator: Adobe Illustrator 18.0.0, SVG Export Plug-In . SVG Version: 6.00 Build 0)  -->
<!DOCTYPE svg PUBLIC "-//W3C//DTD SVG 1.1//EN" "http://www.w3.org/Graphics/SVG/1.1/DTD/svg11.dtd">
<svg version="1.1" id="Capa_1" xmlns="http://www.w3.org/2000/svg" xmlns:xlink="http://www.w3.org/1999/xlink" x="0px" y="0px"
	 viewBox="0 0 297.5 297.5" style="enable-background:new 0 0 297.5 297.5;" xml:space="preserve">
<g id="XMLID_34_">
	<g>
		<path style="fill:#FFCD02;" d="M240.139,92.37h30.2c-2.82,5.48-8.53,9.24-15.1,9.24S242.959,97.85,240.139,92.37z"/>
		<path style="fill:#FFCD02;" d="M133.649,92.37h30.2c-2.82,5.48-8.52,9.24-15.1,9.24C142.179,101.61,136.479,97.85,133.649,92.37z"
			/>
		<path style="fill:#FFCD02;" d="M27.169,92.37h30.2c-2.83,5.48-8.53,9.24-15.1,9.24C35.689,101.61,29.989,97.85,27.169,92.37z"/>
		<path style="fill:#FFCD02;" d="M125.969,41.81c-2.89,8.37-5.38,19.01-7.32,31.3h-25.67C101.739,58.57,113.219,47.76,125.969,41.81
			z"/>
		<path style="fill:#FFCD02;" d="M204.529,73.11h-25.68c-1.94-12.29-4.42-22.93-7.31-31.3
			C184.279,47.76,195.769,58.57,204.529,73.11z"/>
		<path style="fill:#D95459;" d="M186.899,92.37h30.2c-2.83,5.48-8.53,9.24-15.1,9.24C195.419,101.61,189.719,97.85,186.899,92.37z"
			/>
		<path style="fill:#D95459;" d="M80.409,92.37h30.2c-2.82,5.48-8.53,9.24-15.1,9.24S83.229,97.85,80.409,92.37z"/>
		<path style="fill:#D95459;" d="M89.429,45.68c-7.06,7.78-13.26,17-18.33,27.43h-32.9C52.239,61.3,69.809,51.96,89.429,45.68z"/>
		<path style="fill:#D95459;" d="M159.339,73.11h-21.17c3.53-20.85,7.97-31.1,10.58-35.04
			C151.369,42.01,155.809,52.26,159.339,73.11z"/>
		<path style="fill:#D95459;" d="M259.309,73.11h-32.9c-5.07-10.43-11.27-19.65-18.34-27.43
			C227.699,51.96,245.269,61.3,259.309,73.11z"/>
		<path d="M289.709,76.74c1.9,2.38,2.16,5.42,1.77,8.38c-2.6,19.59-16.42,35.75-36.24,35.75c-10.51,0-19.99-4.5-26.62-11.67
			c-6.63,7.17-16.11,11.67-26.62,11.67c-10.52,0-20-4.5-26.63-11.67c-4.52,4.9-10.38,8.54-16.98,10.37v168.05
			c0,5.32-4.32,9.63-9.64,9.63c-5.32,0-9.63-4.31-9.63-9.63V119.57c-6.61-1.83-12.46-5.47-16.99-10.37
			c-6.63,7.17-16.11,11.67-26.62,11.67s-19.99-4.5-26.62-11.67c-6.63,7.17-16.11,11.67-26.62,11.67
			c-19.83,0-33.65-16.16-36.25-35.75c-0.39-2.96-0.12-6,1.78-8.38c14.25-17.89,34.66-32.84,59.02-43.24
			c22-9.39,46.82-14.84,72.3-15.94V9.88c0-5.32,4.31-9.63,9.63-9.63c5.32,0,9.64,4.31,9.64,9.63v7.68
			c25.48,1.1,50.29,6.55,72.29,15.94C255.039,43.9,275.449,58.85,289.709,76.74z M270.339,92.37h-30.2
			c2.82,5.48,8.53,9.24,15.1,9.24S267.519,97.85,270.339,92.37z M226.409,73.11h32.9c-14.04-11.81-31.61-21.15-51.24-27.43
			C215.139,53.46,221.339,62.68,226.409,73.11z M217.099,92.37h-30.2c2.82,5.48,8.52,9.24,15.1,9.24
			C208.569,101.61,214.269,97.85,217.099,92.37z M178.849,73.11h25.68c-8.76-14.54-20.25-25.35-32.99-31.3
			C174.429,50.18,176.909,60.82,178.849,73.11z M163.849,92.37h-30.2c2.83,5.48,8.53,9.24,15.1,9.24
			C155.329,101.61,161.029,97.85,163.849,92.37z M138.169,73.11h21.17c-3.53-20.85-7.97-31.1-10.59-35.04
			C146.139,42.01,141.699,52.26,138.169,73.11z M118.649,73.11c1.94-12.29,4.43-22.93,7.32-31.3c-12.75,5.95-24.23,16.76-32.99,31.3
			H118.649z M110.609,92.37h-30.2c2.82,5.48,8.53,9.24,15.1,9.24S107.789,97.85,110.609,92.37z M71.099,73.11
			c5.07-10.43,11.27-19.65,18.33-27.43c-19.62,6.28-37.19,15.62-51.23,27.43H71.099z M57.369,92.37h-30.2
			c2.82,5.48,8.52,9.24,15.1,9.24C48.839,101.61,54.539,97.85,57.369,92.37z"/>
	</g>
	<g>
	</g>
</g>
<g>
</g>
<g>
</g>
<g>
</g>
<g>
</g>
<g>
</g>
<g>
</g>
<g>
</g>
<g>
</g>
<g>
</g>
<g>
</g>
<g>
</g>
<g>
</g>
<g>
</g>
<g>
</g>
<g>
</g>
</svg>
