<?xml version="1.0" encoding="iso-8859-1"?>
<!-- Generator: Adobe Illustrator 18.0.0, SVG Export Plug-In . SVG Version: 6.00 Build 0)  -->
<!DOCTYPE svg PUBLIC "-//W3C//DTD SVG 1.1//EN" "http://www.w3.org/Graphics/SVG/1.1/DTD/svg11.dtd">
<svg version="1.1" id="Capa_1" xmlns="http://www.w3.org/2000/svg" xmlns:xlink="http://www.w3.org/1999/xlink" x="0px" y="0px"
	 viewBox="0 0 297.5 297.5" style="enable-background:new 0 0 297.5 297.5;" xml:space="preserve">
<g id="XMLID_21_">
	<g>
		<path style="fill:#99ABD5;" d="M277.49,177.413v11.78l-89.57,29.86H20.02v-12.85h169.5c1.07,0,2.12-0.17,3.13-0.51L277.49,177.413
			z"/>
		<path style="fill:#8E725E;" d="M244.87,103.963v0.68h-45.46v-6.42c0-5.46-4.43-9.88-9.89-9.88c-5.46,0-9.88,4.42-9.88,9.88v6.42
			H36.33v-0.68l104.27-59.59L244.87,103.963z"/>
		<path d="M297.25,231.893v32.62c0,5.46-4.42,9.88-9.88,9.88s-9.88-4.42-9.88-9.88v-22.73H20.02v22.73c0,5.46-4.43,9.88-9.88,9.88
			c-5.46,0-9.89-4.42-9.89-9.88v-68.2c0-5.45,4.43-9.88,9.89-9.88h120.58v-62.02H26.44c-5.45,0-9.88-4.42-9.88-9.88v-16.31
			c0-3.55,1.9-6.82,4.98-8.58l114.16-65.23c3.03-1.74,6.76-1.74,9.8,0l114.16,65.23c3.08,1.76,4.98,5.03,4.98,8.58v16.31
			c0,5.46-4.43,9.88-9.89,9.88H150.48v62.02h37.44l96.32-32.11c3.02-1,6.33-0.5,8.91,1.36c2.58,1.86,4.1,4.84,4.1,8.02v32.61
			c0,4.26-2.72,8.04-6.76,9.38l-48.96,16.32h45.84C292.83,222.012,297.25,226.443,297.25,231.893z M277.49,189.193v-11.78
			l-84.84,28.28c-1.01,0.34-2.06,0.51-3.13,0.51H20.02v12.85h167.9L277.49,189.193z M244.87,104.643v-0.68L140.6,44.373
			l-104.27,59.59v0.68h143.31v-6.42c0-5.46,4.42-9.88,9.88-9.88c5.46,0,9.89,4.42,9.89,9.88v6.42H244.87z"/>
	</g>
	<g>
	</g>
</g>
<g>
</g>
<g>
</g>
<g>
</g>
<g>
</g>
<g>
</g>
<g>
</g>
<g>
</g>
<g>
</g>
<g>
</g>
<g>
</g>
<g>
</g>
<g>
</g>
<g>
</g>
<g>
</g>
<g>
</g>
</svg>
