<?xml version="1.0" encoding="iso-8859-1"?>
<!-- Generator: Adobe Illustrator 18.0.0, SVG Export Plug-In . SVG Version: 6.00 Build 0)  -->
<!DOCTYPE svg PUBLIC "-//W3C//DTD SVG 1.1//EN" "http://www.w3.org/Graphics/SVG/1.1/DTD/svg11.dtd">
<svg version="1.1" id="Capa_1" xmlns="http://www.w3.org/2000/svg" xmlns:xlink="http://www.w3.org/1999/xlink" x="0px" y="0px"
	 viewBox="0 0 297.5 297.5" style="enable-background:new 0 0 297.5 297.5;" xml:space="preserve">
<g id="XMLID_36_">
	<g>
		<path style="fill:#BDC3C7;" d="M69.61,112.18c40.96,0,49.36,11.82,49.36,29.57c0,27.22-22.14,49.36-49.36,49.36
			c-26.75,0-49.36-23.87-49.36-52.11C20.25,118.45,31.79,112.18,69.61,112.18z"/>
		<path style="fill:#BDC3C7;" d="M227.9,112.18c37.82,0,49.35,6.27,49.35,26.82c0,28.24-22.6,52.11-49.35,52.11
			c-27.22,0-49.36-22.14-49.36-49.36C178.54,124,186.93,112.18,227.9,112.18z"/>
		<path d="M274.16,99.27c15.32,7.28,23.09,20.65,23.09,39.73c0,39.09-31.76,72.11-69.35,72.11c-38.25,0-69.36-31.12-69.36-69.36
			c0-1.66,0.08-3.27,0.2-4.86h-19.97c0.12,1.59,0.2,3.2,0.2,4.86c0,38.24-31.12,69.36-69.36,69.36c-37.6,0-69.36-33.02-69.36-72.11
			c0-19.08,7.77-32.45,23.09-39.73c13.1-6.23,29.98-7.09,46.27-7.09c7.47,0,14.16,0.36,20.19,1.09c1.31-3.99,5.06-6.88,9.49-6.88
			h98.93c4.43,0,8.18,2.89,9.49,6.88c6.03-0.73,12.71-1.09,20.19-1.09C244.18,92.18,261.06,93.04,274.16,99.27z M277.25,139
			c0-20.55-11.53-26.82-49.35-26.82c-40.97,0-49.36,11.82-49.36,29.57c0,27.22,22.14,49.36,49.36,49.36
			C254.65,191.11,277.25,167.24,277.25,139z M173.1,106.39h-48.69c3.53,3.03,6.43,6.53,8.68,10.5h31.33
			C166.67,112.92,169.57,109.42,173.1,106.39z M118.97,141.75c0-17.75-8.4-29.57-49.36-29.57c-37.82,0-49.36,6.27-49.36,26.82
			c0,28.24,22.61,52.11,49.36,52.11C96.83,191.11,118.97,168.97,118.97,141.75z"/>
	</g>
	<g>
	</g>
</g>
<g>
</g>
<g>
</g>
<g>
</g>
<g>
</g>
<g>
</g>
<g>
</g>
<g>
</g>
<g>
</g>
<g>
</g>
<g>
</g>
<g>
</g>
<g>
</g>
<g>
</g>
<g>
</g>
<g>
</g>
</svg>
