<?xml version="1.0" encoding="iso-8859-1"?>
<!-- Generator: Adobe Illustrator 18.0.0, SVG Export Plug-In . SVG Version: 6.00 Build 0)  -->
<!DOCTYPE svg PUBLIC "-//W3C//DTD SVG 1.1//EN" "http://www.w3.org/Graphics/SVG/1.1/DTD/svg11.dtd">
<svg version="1.1" id="Capa_1" xmlns="http://www.w3.org/2000/svg" xmlns:xlink="http://www.w3.org/1999/xlink" x="0px" y="0px"
	 viewBox="0 0 297.5 297.5" style="enable-background:new 0 0 297.5 297.5;" xml:space="preserve">
<g>
	<g id="XMLID_21_">
		<g>
			<path style="fill:#FFA800;" d="M71.87,70.55v203.41H56.78c-9.22-25.3-14.46-60.31-14.46-97.41
				C42.32,133.77,58.43,95.26,71.87,70.55z"/>
			<path style="fill:#E67E22;" d="M121.46,176.55c0,37.1-5.23,72.11-14.46,97.41H91.91V70.55
				C105.35,95.26,121.46,133.78,121.46,176.55z"/>
			<path d="M287.24,70.62c5.53,0,10.01,4.48,10.01,10.02c0,5.53-4.48,10.01-10.01,10.01h-8.31c-5.54,0-10.02-4.48-10.02-10.01
				c0-5.54,4.48-10.02,10.02-10.02H287.24z"/>
			<path d="M285.73,273.96c5.54,0,10.02,4.49,10.02,10.02s-4.48,10.01-10.02,10.01H10.27c-5.53,0-10.02-4.48-10.02-10.01
				s4.49-10.02,10.02-10.02h25.36c-8.55-26.72-13.34-61.28-13.34-97.41c0-80.14,49.62-144.01,51.73-146.69
				c1.9-2.41,4.8-3.82,7.87-3.82s5.97,1.41,7.87,3.82c2.11,2.68,51.73,66.55,51.73,146.69c0,36.13-4.79,70.69-13.33,97.41H285.73z
				 M107,273.96c9.23-25.3,14.46-60.31,14.46-97.41c0-42.77-16.11-81.29-29.55-106v203.41H107z M71.87,273.96V70.55
				c-13.44,24.71-29.55,63.22-29.55,106c0,37.1,5.24,72.11,14.46,97.41H71.87z"/>
			<path d="M274.66,26.1c3.91,3.91,3.91,10.25,0,14.16l-5.87,5.88c-1.96,1.96-4.52,2.93-7.09,2.93c-2.56,0-5.12-0.97-7.08-2.93
				c-3.91-3.91-3.91-10.25,0-14.17l5.88-5.87C264.41,22.19,270.75,22.19,274.66,26.1z"/>
			<path d="M274.66,121.01c3.91,3.91,3.91,10.25,0,14.16c-1.95,1.96-4.52,2.94-7.08,2.94c-2.56,0-5.13-0.98-7.08-2.94l-5.88-5.87
				c-3.91-3.91-3.91-10.26,0-14.17c3.91-3.91,10.25-3.91,14.17,0L274.66,121.01z"/>
			<path d="M220.12,34.05c25.69,0,46.59,20.9,46.59,46.59c0,25.68-20.9,46.58-46.59,46.58c-25.68,0-46.58-20.9-46.58-46.58
				C173.54,54.95,194.44,34.05,220.12,34.05z M246.68,80.64c0-14.65-11.92-26.56-26.56-26.56s-26.55,11.91-26.55,26.56
				c0,14.64,11.91,26.55,26.55,26.55S246.68,95.28,246.68,80.64z"/>
			<path style="fill:#FFCD02;" d="M220.12,54.08c14.64,0,26.56,11.91,26.56,26.56c0,14.64-11.92,26.55-26.56,26.55
				s-26.55-11.91-26.55-26.55C193.57,65.99,205.48,54.08,220.12,54.08z"/>
			<path d="M230.14,139.44v8.31c0,5.53-4.49,10.02-10.02,10.02s-10.01-4.49-10.01-10.02v-8.31c0-5.53,4.48-10.02,10.01-10.02
				S230.14,133.91,230.14,139.44z"/>
			<path d="M230.14,13.52v8.31c0,5.53-4.49,10.02-10.02,10.02s-10.01-4.49-10.01-10.02v-8.31c0-5.53,4.48-10.01,10.01-10.01
				S230.14,7.99,230.14,13.52z"/>
			<path d="M185.63,31.97c3.91,3.92,3.91,10.26,0,14.17c-1.96,1.96-4.52,2.93-7.09,2.93c-2.56,0-5.12-0.97-7.08-2.93l-5.88-5.88
				c-3.91-3.91-3.91-10.25,0-14.16c3.92-3.91,10.26-3.91,14.17,0L185.63,31.97z"/>
			<path d="M185.63,115.13c3.91,3.91,3.91,10.26,0,14.17l-5.88,5.87c-1.96,1.96-4.52,2.94-7.08,2.94c-2.57,0-5.13-0.98-7.09-2.94
				c-3.91-3.91-3.91-10.25,0-14.16l5.88-5.88C175.37,111.22,181.71,111.22,185.63,115.13z"/>
			<path d="M161.32,70.62c5.53,0,10.02,4.48,10.02,10.02c0,5.53-4.49,10.01-10.02,10.01h-8.31c-5.53,0-10.02-4.48-10.02-10.01
				c0-5.54,4.49-10.02,10.02-10.02H161.32z"/>
		</g>
		<g>
		</g>
	</g>
</g>
<g>
</g>
<g>
</g>
<g>
</g>
<g>
</g>
<g>
</g>
<g>
</g>
<g>
</g>
<g>
</g>
<g>
</g>
<g>
</g>
<g>
</g>
<g>
</g>
<g>
</g>
<g>
</g>
<g>
</g>
</svg>
