<?xml version="1.0" encoding="iso-8859-1"?>
<!-- Generator: Adobe Illustrator 18.0.0, SVG Export Plug-In . SVG Version: 6.00 Build 0)  -->
<!DOCTYPE svg PUBLIC "-//W3C//DTD SVG 1.1//EN" "http://www.w3.org/Graphics/SVG/1.1/DTD/svg11.dtd">
<svg version="1.1" id="Capa_1" xmlns="http://www.w3.org/2000/svg" xmlns:xlink="http://www.w3.org/1999/xlink" x="0px" y="0px"
	 viewBox="0 0 297.5 297.5" style="enable-background:new 0 0 297.5 297.5;" xml:space="preserve">
<g>
	<g id="XMLID_43_">
		<g>
			<path style="fill:#2980B9;" d="M108.91,65.62v166.26c0,12.81-10.42,23.24-23.24,23.24H43.6c-12.82,0-23.25-10.43-23.25-23.24
				V65.62c0-12.81,10.43-23.24,23.25-23.24h42.07C98.49,42.38,108.91,52.81,108.91,65.62z M103.33,90.71
				c0-21.34-17.36-38.7-38.7-38.7c-21.33,0-38.69,17.36-38.69,38.7c0,21.33,17.36,38.69,38.69,38.69
				C85.97,129.4,103.33,112.04,103.33,90.71z M91.27,173.63c0-5.55-4.5-10.06-10.05-10.06H48.05c-5.55,0-10.05,4.51-10.05,10.06
				c0,5.55,4.5,10.05,10.05,10.05h33.17C86.77,183.68,91.27,179.18,91.27,173.63z"/>
			<path style="fill:#BDC3C7;" d="M64.63,72.11c10.26,0,18.6,8.34,18.6,18.6c0,10.25-8.34,18.59-18.6,18.59
				c-10.25,0-18.59-8.34-18.59-18.59C46.04,80.45,54.38,72.11,64.63,72.11z"/>
			<path style="fill:#BDC3C7;" d="M277.15,73.13v90.44H129.01V73.13H277.15z M259.56,107.29c0-5.55-4.5-10.05-10.05-10.05h-99.5
				c-5.55,0-10.05,4.5-10.05,10.05c0,5.55,4.5,10.05,10.05,10.05h99.5C255.06,117.34,259.56,112.84,259.56,107.29z"/>
			<path d="M297.25,63.08v110.55c0,5.55-4.5,10.05-10.05,10.05H129.01v48.2c0,23.9-19.44,43.34-43.34,43.34H43.6
				c-23.9,0-43.35-19.44-43.35-43.34V65.62c0-23.9,19.45-43.34,43.35-43.34h42.07c19.52,0,36.07,12.97,41.47,30.75H287.2
				C292.75,53.03,297.25,57.53,297.25,63.08z M277.15,163.57V73.13H129.01v90.44H277.15z M108.91,231.88V65.62
				c0-12.81-10.42-23.24-23.24-23.24H43.6c-12.82,0-23.25,10.43-23.25,23.24v166.26c0,12.81,10.43,23.24,23.25,23.24h42.07
				C98.49,255.12,108.91,244.69,108.91,231.88z"/>
			<path d="M249.51,97.24c5.55,0,10.05,4.5,10.05,10.05c0,5.55-4.5,10.05-10.05,10.05h-99.5c-5.55,0-10.05-4.5-10.05-10.05
				c0-5.55,4.5-10.05,10.05-10.05H249.51z"/>
			<path d="M64.63,52.01c21.34,0,38.7,17.36,38.7,38.7c0,21.33-17.36,38.69-38.7,38.69c-21.33,0-38.69-17.36-38.69-38.69
				C25.94,69.37,43.3,52.01,64.63,52.01z M83.23,90.71c0-10.26-8.34-18.6-18.6-18.6c-10.25,0-18.59,8.34-18.59,18.6
				c0,10.25,8.34,18.59,18.59,18.59C74.89,109.3,83.23,100.96,83.23,90.71z"/>
			<path d="M81.22,163.57c5.55,0,10.05,4.51,10.05,10.06c0,5.55-4.5,10.05-10.05,10.05H48.05c-5.55,0-10.05-4.5-10.05-10.05
				c0-5.55,4.5-10.06,10.05-10.06H81.22z"/>
		</g>
		<g>
		</g>
	</g>
</g>
<g>
</g>
<g>
</g>
<g>
</g>
<g>
</g>
<g>
</g>
<g>
</g>
<g>
</g>
<g>
</g>
<g>
</g>
<g>
</g>
<g>
</g>
<g>
</g>
<g>
</g>
<g>
</g>
<g>
</g>
</svg>
